<svg id="Layer_1" data-name="Layer 1" xmlns="http://www.w3.org/2000/svg" viewBox="0 0 27.73 27.73"><defs><style>.cls-1{fill:#fff;}</style></defs><title>instagram</title><circle id="_Trazado_" data-name="&lt;Trazado&gt;" class="cls-1" cx="13.87" cy="13.87" r="5.98"/><path class="cls-1" d="M275.1,7043.31H260.39a6.51,6.51,0,0,0-6.52,6.51v14.71a6.52,6.52,0,0,0,6.52,6.51H275.1a6.51,6.51,0,0,0,6.51-6.51v-14.71A6.51,6.51,0,0,0,275.1,7043.31ZM267.74,7066a8.82,8.82,0,1,1,8.82-8.82A8.82,8.82,0,0,1,267.74,7066Zm9.07-16.49a1.48,1.48,0,1,1,1.49-1.48A1.48,1.48,0,0,1,276.81,7049.5Z" transform="translate(-253.87 -7043.31)"/></svg>