<?xml version="1.0" encoding="utf-8"?>
<!-- Generator: Adobe Illustrator 23.1.0, SVG Export Plug-In . SVG Version: 6.00 Build 0)  -->
<svg version="1.1" id="Capa_1" xmlns="http://www.w3.org/2000/svg" xmlns:xlink="http://www.w3.org/1999/xlink" x="0px" y="0px"
	 viewBox="0 0 214 73.14" style="enable-background:new 0 0 214 73.14;" xml:space="preserve">
<style type="text/css">
	.st0{fill:#5E5D5D;}
	.st1{fill:#FFFFFF;}
</style>
<g>
	<g>
		<path class="st1" d="M54.4,23.31C52.16,12.3,41.42,5.19,30.41,7.43c-8.55,1.74-14.74,8.61-16.04,16.74
			c2.75-2.81,6.34-4.86,10.48-5.7c11.01-2.24,21.75,4.87,23.99,15.87c0.5,2.47,0.53,4.91,0.16,7.26
			C53.56,36.94,55.79,30.18,54.4,23.31"/>
		<path class="st1" d="M28.82,50.96c-2.23-1.15-4.16-2.66-5.75-4.42c0.78,6.47,4.65,12.45,10.88,15.66
			c9.98,5.14,22.25,1.22,27.4-8.76c3.99-7.76,2.52-16.88-3.01-22.98c0.48,3.9-0.18,7.98-2.11,11.74
			C51.07,52.19,38.8,56.11,28.82,50.96"/>
		<path class="st1" d="M28.79,28.59c2.19-1.22,4.52-1.99,6.86-2.34c-5.82-2.94-12.94-3.04-19.06,0.36
			C6.76,32.07,3.22,44.46,8.67,54.28c4.23,7.63,12.64,11.47,20.79,10.25c-3.51-1.78-6.54-4.58-8.59-8.28
			C15.42,46.43,18.96,34.04,28.79,28.59"/>
	</g>
	<g>
		<g>
			<rect x="75.44" y="7.01" class="st1" width="5.6" height="28.71"/>
			<path class="st1" d="M105.57,36.5c-8.76,0-14.21-6.71-14.21-15.16c0-8.53,5.64-15.08,14.21-15.08c8.57,0,14.21,6.55,14.21,15.08
				C119.77,29.79,114.33,36.5,105.57,36.5 M105.57,11.78c-5.29,0-8.41,4.69-8.41,9.33c0,4.42,2.21,9.87,8.41,9.87
				c6.21,0,8.41-5.45,8.41-9.87C113.98,16.46,110.86,11.78,105.57,11.78"/>
			<path class="st1" d="M143.65,13.34c-1.07-1.45-2.44-2.36-4.3-2.36c-1.79,0-3.51,1.38-3.51,3.24c0,4.84,11.39,2.82,11.39,12.46
				c0,5.75-3.58,9.83-9.45,9.83c-3.96,0-6.85-2.29-8.83-5.6l3.62-3.54c0.76,2.21,2.78,4.19,5.18,4.19c2.29,0,3.69-1.94,3.69-4.15
				c0-2.97-2.74-3.81-4.99-4.69c-3.69-1.52-6.4-3.39-6.4-7.85c0-4.76,3.54-8.6,8.38-8.6c2.55,0,6.09,1.25,7.85,3.2L143.65,13.34z"/>
			<polygon class="st1" points="164.89,11.89 164.89,18.21 173.01,18.21 173.01,23.09 164.89,23.09 164.89,35.73 159.3,35.73 
				159.3,7.02 173.54,7.02 173.54,11.89 			"/>
			<path class="st1" d="M188.89,29.68l-2.36,6.05h-5.91l11.2-29.47h4.34l10.89,29.47h-5.97l-2.21-6.05H188.89z M193.73,14.67h-0.08
				l-3.16,10.44h6.82L193.73,14.67z"/>
		</g>
		<g>
			<g>
				<path class="st1" d="M76.57,45.45v7.01h-0.92v-7.01H76.57z"/>
				<path class="st1" d="M78.34,48.79c0-0.53-0.01-0.95-0.04-1.36h0.81l0.05,0.83h0.02c0.25-0.46,0.83-0.93,1.66-0.93
					c0.7,0,1.78,0.42,1.78,2.14v2.99h-0.91v-2.9c0-0.81-0.3-1.49-1.17-1.49c-0.59,0-1.06,0.43-1.23,0.94
					c-0.04,0.11-0.06,0.27-0.06,0.43v3.03h-0.92V48.79z"/>
				<path class="st1" d="M84.1,51.53c0.28,0.16,0.76,0.35,1.22,0.35c0.66,0,0.97-0.32,0.97-0.75c0-0.44-0.26-0.67-0.93-0.91
					c-0.92-0.33-1.34-0.82-1.34-1.42c0-0.81,0.67-1.48,1.74-1.48c0.51,0,0.96,0.14,1.23,0.31l-0.22,0.66
					c-0.2-0.12-0.56-0.3-1.03-0.3c-0.54,0-0.83,0.31-0.83,0.69c0,0.41,0.29,0.6,0.95,0.86c0.86,0.32,1.32,0.76,1.32,1.51
					c0,0.9-0.7,1.52-1.87,1.52c-0.55,0-1.06-0.14-1.41-0.35L84.1,51.53z"/>
				<path class="st1" d="M89.55,46.22v1.21h1.31v0.69h-1.31v2.71c0,0.62,0.18,0.98,0.69,0.98c0.25,0,0.4-0.02,0.53-0.06l0.04,0.7
					c-0.17,0.06-0.46,0.12-0.81,0.12c-0.42,0-0.77-0.14-0.99-0.38c-0.25-0.28-0.35-0.73-0.35-1.32v-2.75h-0.78v-0.69h0.78v-0.94
					L89.55,46.22z"/>
				<path class="st1" d="M93.03,46.01c0,0.31-0.22,0.56-0.58,0.56c-0.33,0-0.55-0.25-0.55-0.56c0-0.31,0.23-0.57,0.57-0.57
					C92.8,45.44,93.03,45.69,93.03,46.01z M92.01,52.46v-5.03h0.92v5.03H92.01z"/>
				<path class="st1" d="M95.66,46.22v1.21h1.31v0.69h-1.31v2.71c0,0.62,0.18,0.98,0.69,0.98c0.25,0,0.39-0.02,0.53-0.06l0.04,0.7
					c-0.18,0.06-0.46,0.12-0.81,0.12c-0.43,0-0.77-0.14-0.99-0.38c-0.25-0.28-0.35-0.73-0.35-1.32v-2.75h-0.78v-0.69h0.78v-0.94
					L95.66,46.22z"/>
				<path class="st1" d="M102.32,51.07c0,0.53,0.01,0.99,0.04,1.38h-0.81l-0.05-0.82h-0.02c-0.23,0.4-0.77,0.93-1.67,0.93
					c-0.79,0-1.73-0.45-1.73-2.2v-2.94h0.92v2.77c0,0.96,0.3,1.61,1.12,1.61c0.61,0,1.04-0.43,1.2-0.84
					c0.05-0.12,0.08-0.29,0.08-0.47v-3.07h0.92V51.07z"/>
				<path class="st1" d="M105.05,46.22v1.21h1.31v0.69h-1.31v2.71c0,0.62,0.18,0.98,0.69,0.98c0.25,0,0.4-0.02,0.53-0.06l0.04,0.7
					c-0.17,0.06-0.46,0.12-0.81,0.12c-0.43,0-0.77-0.14-0.99-0.38c-0.25-0.28-0.35-0.73-0.35-1.32v-2.75h-0.78v-0.69h0.78v-0.94
					L105.05,46.22z"/>
				<path class="st1" d="M112,49.9c0,1.86-1.3,2.67-2.51,2.67c-1.35,0-2.41-1-2.41-2.59c0-1.68,1.11-2.66,2.5-2.66
					C111.02,47.32,112,48.37,112,49.9z M108.01,49.95c0,1.1,0.63,1.93,1.52,1.93c0.87,0,1.53-0.82,1.53-1.95
					c0-0.85-0.42-1.92-1.51-1.92C108.48,48.01,108.01,49,108.01,49.95z"/>
				<path class="st1" d="M119.91,45.07v6.08c0,0.45,0.02,0.96,0.04,1.3h-0.81l-0.04-0.87h-0.03c-0.27,0.56-0.87,0.99-1.69,0.99
					c-1.22,0-2.16-1.03-2.16-2.56c-0.01-1.67,1.04-2.69,2.26-2.69c0.78,0,1.29,0.37,1.52,0.76h0.02v-3.01H119.91z M119.01,49.47
					c0-0.11-0.01-0.27-0.04-0.38c-0.13-0.57-0.63-1.05-1.32-1.05c-0.95,0-1.51,0.83-1.51,1.94c0,1.02,0.51,1.86,1.49,1.86
					c0.61,0,1.17-0.42,1.34-1.09c0.03-0.13,0.04-0.25,0.04-0.4V49.47z"/>
				<path class="st1" d="M122.07,50.11c0.02,1.24,0.8,1.75,1.73,1.75c0.66,0,1.06-0.11,1.39-0.26l0.17,0.66
					c-0.32,0.15-0.88,0.32-1.68,0.32c-1.55,0-2.48-1.03-2.48-2.55c0-1.52,0.9-2.7,2.36-2.7c1.65,0,2.08,1.44,2.08,2.36
					c0,0.19-0.01,0.32-0.03,0.43H122.07z M124.75,49.45c0.01-0.57-0.24-1.48-1.27-1.48c-0.94,0-1.33,0.84-1.4,1.48H124.75z"/>
				<path class="st1" d="M135.22,48.88c0,2.4-1.47,3.69-3.25,3.69c-1.86,0-3.15-1.45-3.15-3.57c0-2.22,1.37-3.68,3.24-3.68
					C133.98,45.32,135.22,46.79,135.22,48.88z M129.77,48.98c0,1.51,0.81,2.85,2.25,2.85c1.43,0,2.25-1.32,2.25-2.91
					c0-1.4-0.73-2.86-2.23-2.86C130.52,46.06,129.77,47.46,129.77,48.98z"/>
				<path class="st1" d="M136.47,45.07h0.9v3.16h0.02c0.32-0.56,0.9-0.91,1.72-0.91c1.26,0,2.13,1.04,2.13,2.56
					c0,1.8-1.14,2.69-2.27,2.69c-0.73,0-1.31-0.28-1.69-0.93h-0.02l-0.05,0.82h-0.78c0.02-0.35,0.04-0.85,0.04-1.3V45.07z
					 M137.38,50.44c0,0.11,0.01,0.23,0.04,0.33c0.17,0.63,0.71,1.07,1.37,1.07c0.97,0,1.53-0.78,1.53-1.94
					c0-1.01-0.52-1.87-1.51-1.87c-0.61,0-1.2,0.44-1.38,1.12c-0.03,0.12-0.05,0.24-0.05,0.38V50.44z"/>
				<path class="st1" d="M142.5,48.99c0-0.59-0.01-1.1-0.04-1.57h0.8l0.04,1h0.03c0.23-0.67,0.79-1.1,1.4-1.1
					c0.09,0,0.17,0.01,0.25,0.02v0.86c-0.09-0.02-0.19-0.02-0.31-0.02c-0.64,0-1.1,0.48-1.23,1.17c-0.02,0.12-0.03,0.28-0.03,0.42
					v2.69h-0.92V48.99z"/>
				<path class="st1" d="M149.5,51.25c0,0.44,0.02,0.86,0.07,1.21h-0.82l-0.07-0.64h-0.03c-0.28,0.4-0.82,0.75-1.54,0.75
					c-1.02,0-1.54-0.72-1.54-1.45c0-1.22,1.08-1.88,3.03-1.87v-0.1c0-0.41-0.12-1.16-1.15-1.15c-0.48,0-0.97,0.13-1.32,0.38
					l-0.21-0.61c0.42-0.26,1.03-0.44,1.66-0.44c1.54,0,1.91,1.05,1.91,2.05V51.25z M148.61,49.89c-1-0.02-2.13,0.16-2.13,1.13
					c0,0.6,0.4,0.87,0.85,0.87c0.66,0,1.09-0.41,1.24-0.84c0.03-0.1,0.04-0.21,0.04-0.29V49.89z"/>
				<path class="st1" d="M153.32,51.35c0.41,0.26,0.99,0.46,1.61,0.46c0.92,0,1.46-0.49,1.46-1.19c0-0.64-0.37-1.03-1.32-1.38
					c-1.14-0.42-1.85-1.02-1.85-2c0-1.09,0.9-1.9,2.27-1.9c0.71,0,1.24,0.17,1.54,0.34l-0.25,0.74c-0.22-0.13-0.68-0.33-1.32-0.33
					c-0.96,0-1.32,0.57-1.32,1.05c0,0.66,0.43,0.98,1.39,1.35c1.18,0.46,1.78,1.03,1.78,2.06c0,1.08-0.79,2.03-2.44,2.03
					c-0.68,0-1.42-0.21-1.79-0.46L153.32,51.35z"/>
				<path class="st1" d="M163.26,49.9c0,1.86-1.3,2.67-2.51,2.67c-1.35,0-2.41-1-2.41-2.59c0-1.68,1.11-2.66,2.49-2.66
					C162.28,47.32,163.26,48.37,163.26,49.9z M159.28,49.95c0,1.1,0.62,1.93,1.52,1.93c0.87,0,1.53-0.82,1.53-1.95
					c0-0.85-0.42-1.92-1.51-1.92C159.74,48.01,159.28,49,159.28,49.95z"/>
				<path class="st1" d="M168.11,52.28c-0.24,0.12-0.77,0.29-1.45,0.29c-1.52,0-2.51-1.03-2.51-2.57c0-1.55,1.06-2.68,2.7-2.68
					c0.54,0,1.02,0.14,1.27,0.27l-0.21,0.7c-0.22-0.11-0.56-0.24-1.06-0.24c-1.15,0-1.78,0.87-1.78,1.9c0,1.16,0.75,1.88,1.75,1.88
					c0.52,0,0.86-0.13,1.12-0.24L168.11,52.28z"/>
				<path class="st1" d="M170.31,46.01c0,0.31-0.22,0.56-0.58,0.56c-0.33,0-0.55-0.25-0.55-0.56c0-0.31,0.23-0.57,0.57-0.57
					C170.09,45.44,170.31,45.69,170.31,46.01z M169.3,52.46v-5.03h0.92v5.03H169.3z"/>
				<path class="st1" d="M175.38,51.25c0,0.44,0.02,0.86,0.07,1.21h-0.82l-0.07-0.64h-0.03c-0.28,0.4-0.82,0.75-1.54,0.75
					c-1.02,0-1.54-0.72-1.54-1.45c0-1.22,1.08-1.88,3.02-1.87v-0.1c0-0.41-0.11-1.16-1.14-1.15c-0.48,0-0.97,0.13-1.32,0.38
					l-0.21-0.61c0.42-0.26,1.03-0.44,1.66-0.44c1.54,0,1.91,1.05,1.91,2.05V51.25z M174.49,49.89c-1-0.02-2.13,0.16-2.13,1.13
					c0,0.6,0.39,0.87,0.85,0.87c0.66,0,1.09-0.41,1.24-0.84c0.03-0.1,0.04-0.21,0.04-0.29V49.89z"/>
				<path class="st1" d="M176.97,45.07h0.92v7.38h-0.92V45.07z"/>
				<path class="st1" d="M186.34,45.07v6.08c0,0.45,0.02,0.96,0.04,1.3h-0.81l-0.04-0.87h-0.03c-0.27,0.56-0.87,0.99-1.69,0.99
					c-1.22,0-2.16-1.03-2.16-2.56c-0.01-1.67,1.04-2.69,2.25-2.69c0.78,0,1.29,0.37,1.52,0.76h0.02v-3.01H186.34z M185.44,49.47
					c0-0.11-0.01-0.27-0.04-0.38c-0.14-0.57-0.63-1.05-1.32-1.05c-0.95,0-1.51,0.83-1.51,1.94c0,1.02,0.51,1.86,1.49,1.86
					c0.61,0,1.17-0.42,1.34-1.09c0.03-0.13,0.04-0.25,0.04-0.4V49.47z"/>
				<path class="st1" d="M188.49,50.11c0.02,1.24,0.8,1.75,1.72,1.75c0.66,0,1.06-0.11,1.39-0.26l0.16,0.66
					c-0.32,0.15-0.88,0.32-1.68,0.32c-1.55,0-2.47-1.03-2.47-2.55c0-1.52,0.89-2.7,2.36-2.7c1.65,0,2.08,1.44,2.08,2.36
					c0,0.19-0.01,0.32-0.03,0.43H188.49z M191.18,49.45c0.01-0.57-0.24-1.48-1.27-1.48c-0.94,0-1.33,0.84-1.4,1.48H191.18z"/>
				<path class="st1" d="M195.75,45.07h0.92v7.38h-0.92V45.07z"/>
				<path class="st1" d="M201.85,51.25c0,0.44,0.02,0.86,0.07,1.21h-0.82l-0.07-0.64H201c-0.28,0.4-0.82,0.75-1.54,0.75
					c-1.02,0-1.54-0.72-1.54-1.45c0-1.22,1.08-1.88,3.03-1.87v-0.1c0-0.41-0.11-1.16-1.14-1.15c-0.48,0-0.97,0.13-1.32,0.38
					l-0.21-0.61c0.42-0.26,1.03-0.44,1.66-0.44c1.54,0,1.91,1.05,1.91,2.05V51.25z M200.97,49.89c-1-0.02-2.13,0.16-2.13,1.13
					c0,0.6,0.4,0.87,0.85,0.87c0.67,0,1.09-0.41,1.24-0.84c0.03-0.1,0.04-0.21,0.04-0.29V49.89z"/>
				<path class="st1" d="M203.32,51.53c0.28,0.16,0.76,0.35,1.22,0.35c0.65,0,0.96-0.32,0.96-0.75c0-0.44-0.26-0.67-0.92-0.91
					c-0.92-0.33-1.34-0.82-1.34-1.42c0-0.81,0.66-1.48,1.73-1.48c0.51,0,0.96,0.14,1.23,0.31l-0.22,0.66
					c-0.2-0.12-0.56-0.3-1.03-0.3c-0.54,0-0.83,0.31-0.83,0.69c0,0.41,0.29,0.6,0.95,0.86c0.86,0.32,1.32,0.76,1.32,1.51
					c0,0.9-0.7,1.52-1.87,1.52c-0.55,0-1.06-0.14-1.41-0.35L203.32,51.53z"/>
				<path class="st1" d="M75.62,57.92h3.59v0.76h-2.72v2.33H79v0.75h-2.51v3.17h-0.87V57.92z"/>
				<path class="st1" d="M84.01,63.54c0,0.53,0.01,0.99,0.04,1.38h-0.77l-0.05-0.82h-0.02c-0.22,0.41-0.73,0.94-1.58,0.94
					c-0.75,0-1.65-0.45-1.65-2.2V59.9h0.87v2.78c0,0.96,0.28,1.61,1.06,1.61c0.58,0,0.99-0.43,1.15-0.84
					c0.05-0.12,0.08-0.29,0.08-0.47V59.9h0.87V63.54z"/>
				<path class="st1" d="M85.89,62.58c0.02,1.24,0.76,1.74,1.64,1.74c0.62,0,1.01-0.11,1.32-0.26l0.16,0.66
					c-0.31,0.14-0.84,0.32-1.6,0.32c-1.47,0-2.35-1.03-2.35-2.54c0-1.52,0.85-2.7,2.24-2.7c1.57,0,1.98,1.43,1.98,2.36
					c0,0.19-0.01,0.32-0.03,0.43H85.89z M88.44,61.92c0.01-0.57-0.23-1.48-1.21-1.48c-0.89,0-1.26,0.85-1.33,1.48H88.44z"/>
				<path class="st1" d="M90.3,61.47c0-0.59-0.01-1.1-0.04-1.57h0.76l0.04,1h0.03c0.22-0.68,0.75-1.1,1.33-1.1
					c0.09,0,0.16,0.01,0.24,0.02v0.86c-0.09-0.02-0.18-0.02-0.3-0.02c-0.61,0-1.05,0.48-1.17,1.17c-0.02,0.13-0.03,0.28-0.03,0.43
					v2.68H90.3V61.47z"/>
				<path class="st1" d="M93.03,64.4l2.15-2.96c0.22-0.28,0.42-0.52,0.63-0.79v-0.02h-2.59V59.9h3.63v0.57l-2.13,2.92
					c-0.2,0.28-0.39,0.54-0.61,0.79v0.02h2.79v0.73h-3.87V64.4z"/>
				<path class="st1" d="M101.1,63.72c0,0.44,0.02,0.86,0.07,1.21h-0.78l-0.07-0.63h-0.03c-0.26,0.39-0.78,0.75-1.46,0.75
					c-0.97,0-1.46-0.72-1.46-1.44c0-1.21,1.03-1.88,2.88-1.87v-0.1c0-0.41-0.11-1.17-1.09-1.15c-0.46,0-0.92,0.13-1.25,0.38
					l-0.2-0.61c0.39-0.26,0.98-0.44,1.58-0.44c1.46,0,1.82,1.05,1.82,2.04V63.72z M100.27,62.36c-0.95-0.02-2.03,0.16-2.03,1.13
					c0,0.6,0.38,0.87,0.81,0.87c0.63,0,1.04-0.42,1.17-0.84c0.03-0.11,0.04-0.21,0.04-0.29V62.36z"/>
				<path class="st1" d="M102.34,64c0.27,0.17,0.72,0.35,1.15,0.35c0.62,0,0.92-0.32,0.92-0.75c0-0.43-0.25-0.66-0.88-0.91
					c-0.87-0.33-1.27-0.82-1.27-1.42c0-0.81,0.63-1.47,1.65-1.47c0.48,0,0.91,0.13,1.16,0.31l-0.21,0.66
					c-0.19-0.12-0.53-0.3-0.98-0.3c-0.51,0-0.79,0.31-0.79,0.69c0,0.42,0.28,0.6,0.9,0.86c0.82,0.33,1.25,0.76,1.25,1.51
					c0,0.89-0.66,1.52-1.78,1.52c-0.52,0-1.01-0.14-1.34-0.35L102.34,64z"/>
				<path class="st1" d="M109.47,62.73l-0.69,2.2h-0.89l2.27-7.01h1.03l2.27,7.01h-0.92l-0.71-2.2H109.47z M111.66,62.02L111,60
					c-0.15-0.46-0.25-0.87-0.34-1.28h-0.02c-0.1,0.41-0.2,0.84-0.34,1.27l-0.65,2.02H111.66z"/>
				<path class="st1" d="M114.33,61.47c0-0.59-0.01-1.1-0.04-1.57h0.76l0.04,1h0.03c0.22-0.68,0.75-1.1,1.33-1.1
					c0.09,0,0.16,0.01,0.24,0.02v0.86c-0.09-0.02-0.18-0.02-0.3-0.02c-0.61,0-1.04,0.48-1.16,1.17c-0.02,0.13-0.03,0.28-0.03,0.43
					v2.68h-0.87V61.47z"/>
				<path class="st1" d="M117.55,61.26c0-0.53-0.02-0.95-0.04-1.36h0.76l0.04,0.82h0.03c0.27-0.48,0.71-0.92,1.51-0.92
					c0.64,0,1.14,0.41,1.34,1.01h0.02c0.15-0.29,0.35-0.5,0.54-0.66c0.29-0.23,0.59-0.35,1.05-0.35c0.64,0,1.58,0.44,1.58,2.18v2.95
					h-0.85v-2.84c0-0.98-0.35-1.55-1.04-1.55c-0.5,0-0.88,0.38-1.04,0.82c-0.04,0.14-0.07,0.29-0.07,0.46v3.11h-0.85v-3.01
					c0-0.8-0.34-1.37-1-1.37c-0.53,0-0.94,0.46-1.08,0.92c-0.05,0.13-0.07,0.29-0.07,0.45v3.02h-0.85V61.26z"/>
				<path class="st1" d="M129.09,63.72c0,0.44,0.02,0.86,0.07,1.21h-0.78l-0.07-0.63h-0.03c-0.27,0.39-0.78,0.75-1.46,0.75
					c-0.97,0-1.46-0.72-1.46-1.44c0-1.21,1.03-1.88,2.87-1.87v-0.1c0-0.41-0.11-1.17-1.08-1.15c-0.46,0-0.92,0.13-1.26,0.38
					l-0.2-0.61c0.4-0.26,0.98-0.44,1.58-0.44c1.46,0,1.82,1.05,1.82,2.04V63.72z M128.25,62.36c-0.95-0.02-2.02,0.16-2.02,1.13
					c0,0.6,0.38,0.87,0.81,0.87c0.63,0,1.04-0.42,1.17-0.84c0.03-0.11,0.04-0.21,0.04-0.29V62.36z"/>
				<path class="st1" d="M134.56,57.55v6.08c0,0.45,0.02,0.96,0.04,1.3h-0.77l-0.04-0.87h-0.03c-0.26,0.56-0.83,0.99-1.61,0.99
					c-1.16,0-2.05-1.03-2.05-2.56c-0.01-1.67,0.99-2.69,2.14-2.69c0.74,0,1.22,0.36,1.44,0.76h0.02v-3H134.56z M133.7,61.95
					c0-0.12-0.01-0.27-0.04-0.38c-0.13-0.57-0.6-1.05-1.25-1.05c-0.9,0-1.43,0.83-1.43,1.93c0,1.02,0.49,1.86,1.41,1.86
					c0.58,0,1.11-0.41,1.27-1.09c0.03-0.13,0.04-0.25,0.04-0.4V61.95z"/>
				<path class="st1" d="M139.32,63.72c0,0.44,0.02,0.86,0.07,1.21h-0.78l-0.07-0.63h-0.03c-0.27,0.39-0.78,0.75-1.46,0.75
					c-0.97,0-1.46-0.72-1.46-1.44c0-1.21,1.03-1.88,2.87-1.87v-0.1c0-0.41-0.11-1.17-1.09-1.15c-0.45,0-0.92,0.13-1.25,0.38
					l-0.2-0.61c0.39-0.26,0.98-0.44,1.58-0.44c1.46,0,1.82,1.05,1.82,2.04V63.72z M138.48,62.36c-0.95-0.02-2.02,0.16-2.02,1.13
					c0,0.6,0.38,0.87,0.81,0.87c0.63,0,1.04-0.42,1.18-0.84c0.03-0.11,0.04-0.21,0.04-0.29V62.36z"/>
				<path class="st1" d="M140.55,64c0.27,0.17,0.72,0.35,1.16,0.35c0.62,0,0.92-0.32,0.92-0.75c0-0.43-0.25-0.66-0.88-0.91
					c-0.87-0.33-1.27-0.82-1.27-1.42c0-0.81,0.63-1.47,1.65-1.47c0.49,0,0.91,0.13,1.17,0.31l-0.21,0.66
					c-0.19-0.12-0.53-0.3-0.98-0.3c-0.51,0-0.79,0.31-0.79,0.69c0,0.42,0.28,0.6,0.9,0.86c0.82,0.33,1.25,0.76,1.25,1.51
					c0,0.89-0.66,1.52-1.78,1.52c-0.52,0-1.01-0.14-1.34-0.35L140.55,64z"/>
				<path class="st1" d="M146.89,59.9l1.04,2.97c0.12,0.33,0.24,0.73,0.32,1.03h0.02c0.09-0.3,0.19-0.69,0.31-1.05l0.95-2.95h0.92
					l-1.3,3.59c-0.62,1.73-1.05,2.6-1.64,3.15c-0.43,0.38-0.85,0.54-1.07,0.58l-0.22-0.76c0.22-0.07,0.5-0.22,0.76-0.45
					c0.24-0.2,0.52-0.55,0.73-1.02c0.04-0.09,0.07-0.17,0.07-0.22c0-0.05-0.02-0.12-0.07-0.24l-1.76-4.64H146.89z"/>
				<path class="st1" d="M157.57,57.55v6.08c0,0.45,0.02,0.96,0.04,1.3h-0.77l-0.04-0.87h-0.03c-0.26,0.56-0.83,0.99-1.61,0.99
					c-1.16,0-2.05-1.03-2.05-2.56c-0.01-1.67,0.99-2.69,2.14-2.69c0.74,0,1.22,0.36,1.44,0.76h0.02v-3H157.57z M156.71,61.95
					c0-0.12-0.01-0.27-0.04-0.38c-0.13-0.57-0.6-1.05-1.25-1.05c-0.9,0-1.43,0.83-1.43,1.93c0,1.02,0.49,1.86,1.41,1.86
					c0.58,0,1.12-0.41,1.27-1.09c0.03-0.13,0.04-0.25,0.04-0.4V61.95z"/>
				<path class="st1" d="M159.46,62.58c0.02,1.24,0.76,1.74,1.64,1.74c0.62,0,1.01-0.11,1.32-0.26l0.16,0.66
					c-0.31,0.14-0.84,0.32-1.6,0.32c-1.47,0-2.35-1.03-2.35-2.54c0-1.52,0.85-2.7,2.24-2.7c1.57,0,1.97,1.43,1.97,2.36
					c0,0.19-0.01,0.32-0.03,0.43H159.46z M162,61.92c0.01-0.57-0.23-1.48-1.2-1.48c-0.89,0-1.26,0.85-1.33,1.48H162z"/>
				<path class="st1" d="M165.79,63.83c0.39,0.26,0.94,0.46,1.53,0.46c0.88,0,1.39-0.49,1.39-1.2c0-0.64-0.36-1.03-1.25-1.38
					c-1.09-0.42-1.76-1.02-1.76-2c0-1.09,0.86-1.9,2.15-1.9c0.67,0,1.17,0.17,1.46,0.34l-0.24,0.74c-0.21-0.13-0.65-0.33-1.25-0.33
					c-0.91,0-1.26,0.57-1.26,1.05c0,0.66,0.41,0.98,1.32,1.35c1.13,0.46,1.69,1.03,1.69,2.06c0,1.08-0.75,2.03-2.32,2.03
					c-0.64,0-1.34-0.21-1.7-0.46L165.79,63.83z"/>
				<path class="st1" d="M171.23,62.58c0.02,1.24,0.76,1.74,1.64,1.74c0.62,0,1.01-0.11,1.32-0.26l0.16,0.66
					c-0.31,0.14-0.84,0.32-1.6,0.32c-1.47,0-2.35-1.03-2.35-2.54c0-1.52,0.85-2.7,2.24-2.7c1.57,0,1.97,1.43,1.97,2.36
					c0,0.19-0.01,0.32-0.03,0.43H171.23z M173.78,61.92c0.01-0.57-0.23-1.48-1.21-1.48c-0.89,0-1.26,0.85-1.33,1.48H173.78z"/>
				<path class="st1" d="M179.73,64.19c0,1.16-0.23,1.86-0.68,2.31c-0.47,0.45-1.14,0.6-1.75,0.6c-0.57,0-1.21-0.15-1.59-0.42
					l0.22-0.71c0.32,0.22,0.81,0.4,1.4,0.4c0.89,0,1.54-0.49,1.54-1.77v-0.55h-0.02c-0.26,0.47-0.78,0.84-1.52,0.84
					c-1.19,0-2.04-1.06-2.04-2.45c0-1.71,1.06-2.66,2.16-2.66c0.83,0,1.27,0.45,1.49,0.86h0.02L179,59.9h0.77
					c-0.03,0.35-0.04,0.77-0.04,1.37V64.19z M178.87,61.88c0-0.15-0.01-0.29-0.05-0.4c-0.15-0.54-0.57-0.98-1.21-0.98
					c-0.83,0-1.42,0.74-1.42,1.9c0,0.99,0.48,1.81,1.41,1.81c0.54,0,1.03-0.35,1.21-0.94c0.05-0.16,0.07-0.33,0.07-0.49V61.88z"/>
				<path class="st1" d="M185.12,63.54c0,0.53,0.01,0.99,0.04,1.38h-0.77l-0.05-0.82h-0.02c-0.22,0.41-0.73,0.94-1.58,0.94
					c-0.75,0-1.65-0.45-1.65-2.2V59.9h0.87v2.78c0,0.96,0.29,1.61,1.07,1.61c0.58,0,0.99-0.43,1.15-0.84
					c0.05-0.12,0.08-0.29,0.08-0.47V59.9h0.87V63.54z"/>
				<path class="st1" d="M186.51,61.47c0-0.59-0.01-1.1-0.04-1.57h0.76l0.04,1h0.03c0.22-0.68,0.75-1.1,1.34-1.1
					c0.09,0,0.16,0.01,0.24,0.02v0.86c-0.09-0.02-0.18-0.02-0.3-0.02c-0.61,0-1.05,0.48-1.17,1.17c-0.02,0.13-0.03,0.28-0.03,0.43
					v2.68h-0.87V61.47z"/>
				<path class="st1" d="M190.7,58.48c0,0.31-0.21,0.56-0.55,0.56c-0.32,0-0.52-0.25-0.52-0.56c0-0.31,0.22-0.57,0.54-0.57
					C190.48,57.91,190.7,58.16,190.7,58.48z M189.73,64.93V59.9h0.87v5.03H189.73z"/>
				<path class="st1" d="M196.11,57.55v6.08c0,0.45,0.02,0.96,0.04,1.3h-0.77l-0.04-0.87h-0.03c-0.26,0.56-0.83,0.99-1.61,0.99
					c-1.16,0-2.05-1.03-2.05-2.56c-0.01-1.67,0.99-2.69,2.14-2.69c0.74,0,1.22,0.36,1.44,0.76h0.02v-3H196.11z M195.25,61.95
					c0-0.12-0.01-0.27-0.04-0.38c-0.13-0.57-0.6-1.05-1.25-1.05c-0.9,0-1.43,0.83-1.43,1.93c0,1.02,0.48,1.86,1.41,1.86
					c0.58,0,1.11-0.41,1.27-1.09c0.03-0.13,0.04-0.25,0.04-0.4V61.95z"/>
				<path class="st1" d="M200.87,63.72c0,0.44,0.02,0.86,0.07,1.21h-0.78l-0.07-0.63h-0.03c-0.27,0.39-0.78,0.75-1.46,0.75
					c-0.97,0-1.46-0.72-1.46-1.44c0-1.21,1.03-1.88,2.87-1.87v-0.1c0-0.41-0.11-1.17-1.09-1.15c-0.45,0-0.92,0.13-1.25,0.38
					l-0.2-0.61c0.39-0.26,0.98-0.44,1.58-0.44c1.46,0,1.82,1.05,1.82,2.04V63.72z M200.03,62.36c-0.95-0.02-2.02,0.16-2.02,1.13
					c0,0.6,0.38,0.87,0.81,0.87c0.63,0,1.04-0.42,1.18-0.84c0.03-0.11,0.04-0.21,0.04-0.29V62.36z"/>
				<path class="st1" d="M206.34,57.55v6.08c0,0.45,0.02,0.96,0.04,1.3h-0.77l-0.04-0.87h-0.03c-0.26,0.56-0.83,0.99-1.61,0.99
					c-1.16,0-2.05-1.03-2.05-2.56c-0.01-1.67,0.99-2.69,2.14-2.69c0.74,0,1.23,0.36,1.44,0.76h0.02v-3H206.34z M205.48,61.95
					c0-0.12-0.01-0.27-0.04-0.38c-0.13-0.57-0.6-1.05-1.25-1.05c-0.9,0-1.43,0.83-1.43,1.93c0,1.02,0.48,1.86,1.41,1.86
					c0.58,0,1.12-0.41,1.27-1.09c0.03-0.13,0.04-0.25,0.04-0.4V61.95z"/>
			</g>
		</g>
	</g>
</g>
</svg>
