<?xml version="1.0" encoding="utf-8"?>
<!-- Generator: Adobe Illustrator 23.1.0, SVG Export Plug-In . SVG Version: 6.00 Build 0)  -->
<svg version="1.1" id="Layer_1" xmlns="http://www.w3.org/2000/svg" xmlns:xlink="http://www.w3.org/1999/xlink" x="0px" y="0px"
	 viewBox="0 0 500 200.25" style="enable-background:new 0 0 500 200.25;" xml:space="preserve">
<style type="text/css">
	.st0{fill:none;}
	.st1{fill:#FFFFFF;}
</style>
<rect x="0.87" y="-1" class="st0" width="499.13" height="201.25"/>
<g>
	<path class="st1" d="M206.01,131.13l-2.21-6.76c-0.08-0.23-0.29-0.39-0.54-0.39h-9.41c-0.24,0-0.46,0.15-0.54,0.39l-2.21,6.76
		c-0.08,0.23-0.29,0.39-0.54,0.39h-3.44c-0.39,0-0.66-0.38-0.53-0.74l8.44-25.07c0.08-0.23,0.29-0.38,0.54-0.38h6.02
		c0.24,0,0.46,0.16,0.53,0.38l8.44,25.07c0.12,0.37-0.15,0.74-0.54,0.74h-3.48C206.31,131.52,206.09,131.36,206.01,131.13
		 M195.45,120.19h6.22c0.38,0,0.66-0.38,0.54-0.74l-3.12-9.51c-0.17-0.52-0.9-0.52-1.07,0l-3.1,9.51
		C194.79,119.81,195.06,120.19,195.45,120.19"/>
	<path class="st1" d="M214.02,112.2h2.77c0.28,0,0.52,0.21,0.56,0.49l0.28,2.03h0.25c0.57-0.91,1.31-1.6,2.24-2.06
		c0.93-0.46,1.95-0.69,3.05-0.69c0.35,0,0.69,0.02,1.04,0.06c0.28,0.03,0.5,0.28,0.5,0.57v3.07c0,0.33-0.28,0.59-0.61,0.56
		c-0.35-0.03-0.75-0.04-1.2-0.04c-0.92,0-1.83,0.19-2.72,0.57c-0.82,0.35-1.48,0.83-1.97,1.45c-0.08,0.1-0.12,0.23-0.12,0.36v12.39
		c0,0.31-0.25,0.56-0.56,0.56h-3.51c-0.31,0-0.56-0.25-0.56-0.56v-18.19C213.45,112.46,213.71,112.2,214.02,112.2"/>
	<path class="st1" d="M230.33,139.46c-0.92-0.12-1.8-0.28-2.62-0.5c-0.25-0.07-0.42-0.29-0.42-0.55v-2.51
		c0-0.37,0.35-0.63,0.71-0.54c1.8,0.46,3.52,0.69,5.15,0.69c1.32,0,2.4-0.17,3.22-0.5c0.82-0.34,1.44-0.88,1.83-1.62
		c0.39-0.74,0.59-1.72,0.59-2.94v-1.52h-0.23c-0.6,0.7-1.34,1.24-2.2,1.63c-0.87,0.39-1.84,0.58-2.93,0.58c-1.38,0-2.63-0.33-3.75-1
		c-1.12-0.67-2.02-1.71-2.69-3.12c-0.67-1.41-1.01-3.18-1.01-5.3c0-3.4,0.88-5.97,2.66-7.72c1.77-1.75,4.4-2.63,7.9-2.64
		c1.16,0,2.36,0.09,3.6,0.26c1.07,0.16,2.04,0.36,2.91,0.62c0.24,0.07,0.4,0.29,0.4,0.54v16.82c0,2.23-0.36,4.05-1.09,5.45
		c-0.73,1.4-1.82,2.42-3.28,3.08c-1.46,0.66-3.32,0.98-5.58,0.98C232.47,139.66,231.41,139.6,230.33,139.46 M237.15,127.48
		c0.58-0.23,1.08-0.56,1.5-1c0.1-0.1,0.16-0.25,0.16-0.4v-9.84c0-0.27-0.2-0.51-0.46-0.56c-0.74-0.14-1.47-0.21-2.19-0.21
		c-1.83,0-3.2,0.51-4.12,1.52c-0.91,1.02-1.37,2.63-1.37,4.85c0,2.21,0.38,3.76,1.15,4.67c0.77,0.9,1.87,1.35,3.29,1.35
		C235.81,127.87,236.49,127.74,237.15,127.48"/>
	<path class="st1" d="M263.17,123.25h-10.78c-0.34,0-0.6,0.3-0.56,0.64c0.1,0.96,0.32,1.74,0.66,2.35c0.41,0.74,1.05,1.27,1.91,1.6
		c0.86,0.33,2.01,0.49,3.45,0.49c1.23,0,2.62-0.17,4.16-0.51c0.35-0.08,0.69,0.18,0.69,0.54v2.36c0,0.26-0.18,0.5-0.44,0.55
		c-1.7,0.39-3.38,0.59-5.05,0.59c-2.3,0-4.19-0.35-5.67-1.04c-1.48-0.7-2.59-1.78-3.32-3.25c-0.73-1.47-1.1-3.38-1.1-5.73
		c0-2.16,0.33-3.98,1.01-5.47c0.67-1.49,1.64-2.61,2.92-3.35c1.28-0.75,2.82-1.13,4.62-1.13c2.63,0,4.63,0.85,6,2.54
		c1.37,1.69,2.05,4.21,2.05,7.55v0.69C263.73,123,263.48,123.25,263.17,123.25 M252.79,116.21c-0.58,0.76-0.92,1.99-1.01,3.68
		c-0.02,0.32,0.25,0.59,0.57,0.59h6.46c0.32,0,0.58-0.27,0.57-0.59c-0.08-1.69-0.41-2.92-0.96-3.68c-0.62-0.85-1.54-1.27-2.77-1.27
		C254.39,114.93,253.44,115.36,252.79,116.21"/>
	<path class="st1" d="M267.75,112.2h2.79c0.28,0,0.52,0.2,0.56,0.48l0.24,1.56h0.25c0.73-0.76,1.6-1.33,2.59-1.74
		c1-0.4,2.06-0.6,3.2-0.6c2,0,3.57,0.59,4.73,1.76c1.16,1.17,1.73,3.03,1.73,5.57v11.72c0,0.31-0.25,0.56-0.56,0.56h-3.51
		c-0.31,0-0.56-0.25-0.56-0.56V119.5c0-1.29-0.27-2.21-0.81-2.75c-0.54-0.55-1.33-0.82-2.37-0.82c-0.78,0-1.55,0.16-2.3,0.49
		c-0.69,0.3-1.28,0.73-1.76,1.3c-0.09,0.1-0.13,0.24-0.13,0.37v12.88c0,0.31-0.25,0.56-0.56,0.56h-3.51c-0.31,0-0.56-0.25-0.56-0.56
		v-18.19C267.19,112.46,267.44,112.2,267.75,112.2"/>
	<path class="st1" d="M299.8,128.44v2.59c0,0.27-0.19,0.51-0.45,0.56c-0.97,0.19-1.93,0.29-2.89,0.29c-4.58,0-6.87-2.31-6.87-6.92
		v-8.48c0-0.31-0.25-0.57-0.56-0.57h-2.2c-0.31,0-0.56-0.25-0.56-0.56v-2.57c0-0.31,0.25-0.57,0.56-0.57h2.26
		c0.29,0,0.53-0.21,0.56-0.5l0.7-5.89c0.03-0.29,0.28-0.5,0.56-0.5h2.76c0.31,0,0.56,0.25,0.56,0.56v5.76
		c0,0.31,0.25,0.56,0.56,0.56h4.27c0.31,0,0.56,0.25,0.56,0.57v2.57c0,0.31-0.25,0.56-0.56,0.56h-4.27c-0.31,0-0.56,0.25-0.56,0.57
		v7.74c0,0.94,0.12,1.69,0.37,2.25c0.24,0.55,0.61,0.95,1.11,1.19c0.49,0.24,1.15,0.36,1.96,0.36c0.42,0,0.92-0.04,1.5-0.13
		C299.49,127.83,299.8,128.09,299.8,128.44"/>
	<path class="st1" d="M303.19,108.25c-0.49-0.43-0.73-1.05-0.73-1.87c0-0.81,0.24-1.44,0.73-1.88c0.49-0.44,1.22-0.66,2.21-0.66
		c0.98,0,1.71,0.22,2.21,0.66c0.49,0.44,0.73,1.06,0.73,1.88c0,0.82-0.24,1.44-0.73,1.87c-0.49,0.43-1.23,0.65-2.21,0.65
		C304.41,108.89,303.68,108.68,303.19,108.25 M303.05,130.96v-18.19c0-0.31,0.25-0.57,0.56-0.57h3.53c0.31,0,0.56,0.25,0.56,0.57
		v18.19c0,0.31-0.25,0.56-0.56,0.56h-3.53C303.31,131.52,303.05,131.27,303.05,130.96"/>
	<path class="st1" d="M312.07,112.2h2.79c0.28,0,0.51,0.2,0.56,0.48l0.25,1.56h0.25c0.73-0.76,1.6-1.33,2.59-1.74
		c1-0.4,2.06-0.6,3.2-0.6c1.99,0,3.57,0.59,4.73,1.76c1.16,1.17,1.74,3.03,1.74,5.57v11.72c0,0.31-0.25,0.56-0.56,0.56h-3.51
		c-0.31,0-0.56-0.25-0.56-0.56V119.5c0-1.29-0.27-2.21-0.81-2.75c-0.54-0.55-1.33-0.82-2.37-0.82c-0.78,0-1.54,0.16-2.3,0.49
		c-0.69,0.3-1.28,0.73-1.76,1.3c-0.09,0.1-0.13,0.24-0.13,0.37v12.88c0,0.31-0.25,0.56-0.56,0.56h-3.51c-0.31,0-0.56-0.25-0.56-0.56
		v-18.19C311.51,112.46,311.76,112.2,312.07,112.2"/>
	<path class="st1" d="M343.8,112.64c1.21,0.49,2.12,1.3,2.72,2.41c0.6,1.12,0.89,2.64,0.89,4.57v11.33c0,0.31-0.25,0.56-0.56,0.56
		h-2.8c-0.28,0-0.51-0.2-0.56-0.47l-0.24-1.53h-0.25c-0.58,0.77-1.32,1.35-2.24,1.75c-0.92,0.4-1.93,0.59-3.04,0.59
		c-1.26,0-2.35-0.22-3.27-0.67c-0.92-0.45-1.63-1.08-2.12-1.9c-0.49-0.82-0.73-1.78-0.73-2.89c0-1.79,0.61-3.18,1.84-4.16
		c1.23-0.98,3.17-1.58,5.82-1.79l3.61-0.34v-0.76c0-0.98-0.16-1.75-0.47-2.31c-0.31-0.56-0.8-0.96-1.47-1.19
		c-0.67-0.24-1.56-0.35-2.68-0.35c-0.79,0-1.65,0.07-2.57,0.2c-0.66,0.1-1.31,0.23-1.94,0.4c-0.36,0.1-0.72-0.16-0.72-0.54v-2.38
		c0-0.25,0.16-0.48,0.41-0.54c0.77-0.21,1.61-0.38,2.53-0.5c1.08-0.14,2.1-0.21,3.07-0.21C341,111.9,342.59,112.15,343.8,112.64
		 M341.16,128.17c0.58-0.23,1.1-0.59,1.56-1.07c0.11-0.11,0.16-0.25,0.16-0.4v-3.26c0-0.33-0.28-0.59-0.62-0.56l-2.55,0.23
		c-1.22,0.12-2.1,0.41-2.67,0.88c-0.56,0.46-0.84,1.12-0.84,1.96c0,0.85,0.25,1.5,0.75,1.95c0.5,0.45,1.24,0.68,2.21,0.68
		C339.85,128.56,340.51,128.43,341.16,128.17"/>
	<g>
		<path class="st1" d="M204.12,71.29h4.19v19.21h-3.24V75.98l-5.27,11.77h-2.91l-5.27-11.5v14.24h-3.24V71.29h4.19l5.84,12.95
			L204.12,71.29z"/>
		<path class="st1" d="M212.04,73.43c-0.36-0.32-0.54-0.77-0.54-1.37c0-0.6,0.18-1.05,0.54-1.38c0.36-0.32,0.9-0.48,1.62-0.48
			c0.72,0,1.26,0.16,1.62,0.48c0.36,0.32,0.54,0.78,0.54,1.38c0,0.6-0.18,1.05-0.54,1.37c-0.36,0.32-0.9,0.47-1.62,0.47
			C212.94,73.91,212.4,73.75,212.04,73.43z M211.95,90.49V76.33h3.41v14.16H211.95z"/>
		<path class="st1" d="M218.73,76.33h2.82l0.23,1.49h0.18c0.54-0.55,1.17-0.98,1.9-1.27c0.73-0.3,1.51-0.44,2.34-0.44
			c1.46,0,2.62,0.43,3.46,1.29c0.85,0.86,1.27,2.22,1.27,4.08v9.01h-3.4v-8.81c0-0.94-0.2-1.62-0.6-2.02c-0.4-0.4-0.98-0.6-1.74-0.6
			c-0.57,0-1.13,0.12-1.69,0.36c-0.55,0.24-1.02,0.59-1.39,1.07v10.01h-3.4V76.33z"/>
		<path class="st1" d="M234.3,73.43c-0.36-0.32-0.54-0.77-0.54-1.37c0-0.6,0.18-1.05,0.54-1.38c0.36-0.32,0.9-0.48,1.62-0.48
			c0.72,0,1.26,0.16,1.62,0.48c0.36,0.32,0.54,0.78,0.54,1.38c0,0.6-0.18,1.05-0.54,1.37c-0.36,0.32-0.9,0.47-1.62,0.47
			C235.19,73.91,234.65,73.75,234.3,73.43z M234.2,90.49V76.33h3.41v14.16H234.2z"/>
		<path class="st1" d="M240.56,90.15v-2.54c1.38,0.42,2.8,0.62,4.28,0.62c1,0,1.74-0.15,2.2-0.45c0.46-0.3,0.7-0.73,0.7-1.3
			c0-0.46-0.12-0.81-0.36-1.05c-0.24-0.24-0.66-0.42-1.25-0.54l-2.15-0.4c-1.31-0.26-2.26-0.71-2.85-1.37
			c-0.6-0.65-0.89-1.53-0.89-2.63c0-0.88,0.23-1.65,0.69-2.3c0.46-0.65,1.17-1.16,2.11-1.52c0.94-0.36,2.11-0.55,3.5-0.55
			c1.31,0,2.51,0.15,3.62,0.44v2.53c-1.12-0.3-2.29-0.45-3.53-0.45c-2.14,0-3.2,0.59-3.2,1.77c0,0.41,0.12,0.74,0.36,0.99
			c0.24,0.25,0.64,0.43,1.21,0.55l2.15,0.4c1.3,0.26,2.25,0.7,2.86,1.33c0.61,0.63,0.92,1.52,0.92,2.68c0,0.91-0.23,1.69-0.7,2.35
			c-0.47,0.66-1.15,1.16-2.06,1.52c-0.9,0.35-2,0.53-3.28,0.53C243.27,90.75,241.83,90.55,240.56,90.15z"/>
		<path class="st1" d="M261.62,87.74v2.72c-0.82,0.19-1.64,0.29-2.45,0.29c-3.36,0-5.04-1.69-5.04-5.07v-6.63h-2.44v-2.71h2.44
			l0.6-5.05h2.8v5.05h3.96v2.71h-3.96v6.08c0,0.69,0.09,1.24,0.27,1.65c0.18,0.41,0.45,0.7,0.81,0.88c0.36,0.18,0.84,0.27,1.44,0.27
			C260.46,87.92,260.99,87.86,261.62,87.74z"/>
		<path class="st1" d="M275.05,84.43h-8.76c0.04,0.92,0.22,1.65,0.52,2.19c0.3,0.54,0.77,0.93,1.4,1.17
			c0.63,0.24,1.47,0.36,2.53,0.36c1.04,0,2.22-0.17,3.56-0.49v2.58c-1.36,0.34-2.7,0.51-4.02,0.51c-1.69,0-3.07-0.26-4.16-0.77
			c-1.09-0.51-1.9-1.3-2.43-2.38c-0.54-1.08-0.8-2.48-0.8-4.2c0-1.58,0.25-2.92,0.74-4.01c0.49-1.09,1.21-1.91,2.14-2.46
			c0.93-0.55,2.06-0.82,3.39-0.82c1.93,0,3.4,0.62,4.4,1.86c1,1.24,1.5,3.09,1.5,5.54V84.43z M267.03,79.27
			c-0.48,0.62-0.73,1.67-0.75,3.13h5.59c-0.03-1.46-0.27-2.5-0.72-3.13s-1.13-0.93-2.03-0.93C268.2,78.33,267.51,78.64,267.03,79.27
			z"/>
		<path class="st1" d="M277.58,76.33h2.8l0.26,1.84h0.18c0.42-0.67,0.96-1.17,1.64-1.5c0.68-0.34,1.42-0.51,2.24-0.51
			c0.37,0,0.75,0.03,1.13,0.09v3.09c-0.34-0.06-0.78-0.09-1.32-0.09c-0.67,0-1.34,0.14-1.99,0.42c-0.65,0.28-1.17,0.67-1.54,1.18
			v9.64h-3.4V76.33z"/>
		<path class="st1" d="M287.92,73.43c-0.36-0.32-0.54-0.77-0.54-1.37c0-0.6,0.18-1.05,0.54-1.38c0.36-0.32,0.9-0.48,1.62-0.48
			c0.72,0,1.26,0.16,1.62,0.48c0.36,0.32,0.54,0.78,0.54,1.38c0,0.6-0.18,1.05-0.54,1.37c-0.36,0.32-0.9,0.47-1.62,0.47
			C288.81,73.91,288.27,73.75,287.92,73.43z M287.82,90.49V76.33h3.41v14.16H287.82z"/>
		<path class="st1" d="M295.68,88.92c-1.17-1.22-1.75-3.04-1.75-5.48c0-2.45,0.57-4.28,1.72-5.5c1.15-1.22,2.77-1.83,4.87-1.83
			c2.1,0,3.73,0.61,4.87,1.83c1.15,1.22,1.72,3.05,1.72,5.49c0,1.63-0.26,2.99-0.8,4.08c-0.53,1.09-1.29,1.91-2.28,2.44
			c-0.99,0.54-2.16,0.8-3.52,0.8C298.46,90.75,296.84,90.14,295.68,88.92z M302.89,87.07c0.53-0.71,0.8-1.91,0.8-3.61
			c0-1.72-0.27-2.94-0.8-3.65c-0.53-0.71-1.32-1.07-2.37-1.07c-1.05,0-1.84,0.35-2.37,1.06c-0.53,0.71-0.8,1.91-0.8,3.61
			c0,1.17,0.12,2.1,0.37,2.79c0.25,0.69,0.6,1.19,1.07,1.48c0.46,0.3,1.04,0.45,1.73,0.45C301.57,88.13,302.36,87.78,302.89,87.07z"
			/>
		<path class="st1" d="M318.41,90.01c-0.86-0.48-1.55-1.25-2.05-2.3c-0.51-1.05-0.76-2.38-0.76-4c0-2.49,0.64-4.38,1.91-5.67
			c1.28-1.29,3.14-1.93,5.59-1.93c0.58,0,1.21,0.05,1.89,0.14v-6.72h3.4v20.97h-2.87L325.32,89h-0.18
			c-0.42,0.54-0.96,0.96-1.61,1.27c-0.65,0.31-1.38,0.47-2.19,0.47C320.25,90.74,319.27,90.5,318.41,90.01z M323.79,87.62
			c0.48-0.21,0.89-0.53,1.21-0.94v-7.75c-0.58-0.13-1.21-0.19-1.89-0.19c-1.38,0-2.4,0.37-3.07,1.11c-0.67,0.74-1,1.94-1,3.59
			c0,1.64,0.28,2.81,0.84,3.48c0.56,0.68,1.36,1.02,2.4,1.02C322.8,87.93,323.31,87.83,323.79,87.62z"/>
		<path class="st1" d="M343.27,84.43h-8.76c0.04,0.92,0.22,1.65,0.52,2.19c0.3,0.54,0.77,0.93,1.4,1.17
			c0.63,0.24,1.47,0.36,2.53,0.36c1.04,0,2.22-0.17,3.56-0.49v2.58c-1.36,0.34-2.7,0.51-4.02,0.51c-1.69,0-3.07-0.26-4.16-0.77
			c-1.09-0.51-1.9-1.3-2.43-2.38c-0.54-1.08-0.8-2.48-0.8-4.2c0-1.58,0.25-2.92,0.74-4.01c0.49-1.09,1.21-1.91,2.14-2.46
			c0.93-0.55,2.06-0.82,3.39-0.82c1.93,0,3.4,0.62,4.4,1.86c1,1.24,1.5,3.09,1.5,5.54V84.43z M335.25,79.27
			c-0.48,0.62-0.73,1.67-0.75,3.13h5.59c-0.03-1.46-0.27-2.5-0.72-3.13c-0.45-0.62-1.13-0.93-2.03-0.93
			C336.42,78.33,335.72,78.64,335.25,79.27z"/>
		<path class="st1" d="M352.47,90.38v-18.7c0.87-0.18,1.8-0.33,2.8-0.43c1-0.11,1.97-0.16,2.91-0.16c3.4,0,5.96,0.8,7.66,2.41
			c1.71,1.61,2.56,4.08,2.56,7.4c0,2.28-0.4,4.13-1.21,5.58c-0.8,1.44-2.01,2.5-3.63,3.18c-1.61,0.68-3.65,1.03-6.1,1.03
			C355.81,90.67,354.15,90.57,352.47,90.38z M361.99,87.13c0.96-0.47,1.67-1.22,2.15-2.24c0.48-1.02,0.71-2.36,0.71-4.01
			c0-1.64-0.24-2.97-0.71-3.99c-0.47-1.02-1.19-1.78-2.13-2.26c-0.95-0.48-2.15-0.72-3.62-0.72c-0.73,0-1.55,0.07-2.45,0.22v13.59
			c0.67,0.08,1.46,0.12,2.39,0.12C359.81,87.83,361.03,87.59,361.99,87.13z"/>
		<path class="st1" d="M382.77,84.43h-8.76c0.04,0.92,0.22,1.65,0.52,2.19c0.3,0.54,0.77,0.93,1.4,1.17
			c0.63,0.24,1.47,0.36,2.53,0.36c1.04,0,2.22-0.17,3.56-0.49v2.58c-1.36,0.34-2.7,0.51-4.02,0.51c-1.69,0-3.07-0.26-4.16-0.77
			c-1.09-0.51-1.9-1.3-2.43-2.38c-0.54-1.08-0.8-2.48-0.8-4.2c0-1.58,0.25-2.92,0.74-4.01c0.49-1.09,1.21-1.91,2.14-2.46
			c0.93-0.55,2.06-0.82,3.39-0.82c1.93,0,3.39,0.62,4.4,1.86c1,1.24,1.5,3.09,1.5,5.54V84.43z M374.75,79.27
			c-0.48,0.62-0.73,1.67-0.75,3.13h5.59c-0.03-1.46-0.27-2.5-0.72-3.13s-1.13-0.93-2.03-0.93
			C375.92,78.33,375.23,78.64,374.75,79.27z"/>
		<path class="st1" d="M390.3,72.65c-0.49,0.44-0.73,1.14-0.73,2.1v1.58h3.97v2.71h-3.97v11.45h-3.37V79.05h-2.44v-2.71h2.44v-1.44
			c0-1.8,0.51-3.19,1.52-4.17c1.01-0.98,2.47-1.47,4.39-1.47c0.69,0,1.36,0.05,2.01,0.16v2.7c-0.59-0.09-1.1-0.13-1.53-0.13
			C391.54,71.99,390.78,72.21,390.3,72.65z"/>
		<path class="st1" d="M406.55,84.43h-8.76c0.04,0.92,0.22,1.65,0.52,2.19c0.3,0.54,0.77,0.93,1.4,1.17
			c0.63,0.24,1.47,0.36,2.53,0.36c1.04,0,2.22-0.17,3.56-0.49v2.58c-1.36,0.34-2.7,0.51-4.02,0.51c-1.69,0-3.07-0.26-4.16-0.77
			c-1.08-0.51-1.9-1.3-2.43-2.38c-0.54-1.08-0.8-2.48-0.8-4.2c0-1.58,0.25-2.92,0.74-4.01c0.49-1.09,1.21-1.91,2.14-2.46
			c0.94-0.55,2.06-0.82,3.39-0.82c1.93,0,3.4,0.62,4.4,1.86c1,1.24,1.51,3.09,1.51,5.54V84.43z M398.54,79.27
			c-0.48,0.62-0.73,1.67-0.75,3.13h5.59c-0.03-1.46-0.27-2.5-0.72-3.13c-0.45-0.62-1.13-0.93-2.03-0.93
			C399.71,78.33,399.01,78.64,398.54,79.27z"/>
		<path class="st1" d="M409.09,76.33h2.82l0.23,1.49h0.18c0.54-0.55,1.17-0.98,1.9-1.27c0.73-0.3,1.51-0.44,2.34-0.44
			c1.46,0,2.62,0.43,3.47,1.29c0.85,0.86,1.27,2.22,1.27,4.08v9.01h-3.4v-8.81c0-0.94-0.2-1.62-0.6-2.02c-0.4-0.4-0.98-0.6-1.74-0.6
			c-0.57,0-1.13,0.12-1.69,0.36c-0.55,0.24-1.02,0.59-1.39,1.07v10.01h-3.4V76.33z"/>
		<path class="st1" d="M424.13,90.15v-2.54c1.38,0.42,2.8,0.62,4.28,0.62c1,0,1.74-0.15,2.2-0.45c0.46-0.3,0.7-0.73,0.7-1.3
			c0-0.46-0.12-0.81-0.36-1.05c-0.24-0.24-0.66-0.42-1.25-0.54l-2.15-0.4c-1.31-0.26-2.26-0.71-2.85-1.37
			c-0.6-0.65-0.89-1.53-0.89-2.63c0-0.88,0.23-1.65,0.69-2.3c0.46-0.65,1.17-1.16,2.11-1.52c0.94-0.36,2.11-0.55,3.5-0.55
			c1.31,0,2.51,0.15,3.62,0.44v2.53c-1.12-0.3-2.29-0.45-3.53-0.45c-2.14,0-3.2,0.59-3.2,1.77c0,0.41,0.12,0.74,0.36,0.99
			c0.24,0.25,0.64,0.43,1.21,0.55l2.15,0.4c1.3,0.26,2.25,0.7,2.86,1.33c0.61,0.63,0.92,1.52,0.92,2.68c0,0.91-0.23,1.69-0.7,2.35
			c-0.47,0.66-1.15,1.16-2.06,1.52c-0.9,0.35-2,0.53-3.28,0.53C426.84,90.75,425.4,90.55,424.13,90.15z"/>
		<path class="st1" d="M445.11,76.65c0.89,0.36,1.55,0.95,1.99,1.77c0.44,0.82,0.66,1.94,0.66,3.35v8.72h-2.82l-0.23-1.47h-0.18
			c-0.42,0.56-0.97,0.99-1.64,1.28c-0.67,0.29-1.41,0.43-2.22,0.43c-0.93,0-1.73-0.17-2.4-0.49c-0.67-0.33-1.19-0.79-1.55-1.4
			c-0.36-0.6-0.54-1.31-0.54-2.12c0-1.31,0.45-2.33,1.35-3.05c0.9-0.72,2.32-1.16,4.27-1.31l2.65-0.25v-0.56
			c0-0.72-0.11-1.28-0.34-1.69c-0.23-0.41-0.59-0.7-1.08-0.88c-0.49-0.17-1.14-0.26-1.97-0.26c-0.58,0-1.21,0.05-1.88,0.15
			c-0.67,0.1-1.32,0.25-1.95,0.45v-2.61c0.64-0.2,1.36-0.35,2.15-0.45c0.79-0.1,1.54-0.16,2.25-0.16
			C443.06,76.11,444.22,76.29,445.11,76.65z M443.17,88.04c0.47-0.19,0.89-0.49,1.27-0.91v-3.01l-2.32,0.21
			c-0.89,0.09-1.54,0.3-1.95,0.64c-0.41,0.34-0.62,0.82-0.62,1.43c0,0.62,0.18,1.1,0.55,1.43c0.37,0.33,0.91,0.49,1.62,0.49
			C442.21,88.33,442.7,88.23,443.17,88.04z"/>
	</g>
	<g>
		<path class="st1" d="M123.69,48.58l-0.01-0.06L123.69,48.58c1.18-0.19,2.22-0.28,3.12-0.28c2.92,0,3.37,0.97,3.41,1.08
			c0,0.01,0.11,0.24,0.4,0.24c0.05,0,0.1,0,0.15-0.02c0.09-0.01,0.15-0.05,0.18-0.11c0.04-0.08,0.04-0.18-0.02-0.32
			c-0.01-0.02-0.69-1.89-3.68-2.21c-0.01,0-1.63-0.21-3.33,0.1c-0.46,0.08-0.61,1.17-0.61,1.18c-0.02,0.13,0,0.22,0.06,0.28
			C123.46,48.6,123.63,48.59,123.69,48.58"/>
		<path class="st1" d="M118.72,49.83L118.72,49.83c-0.69-0.32-2.29-0.25-2.3-0.25c-2.54,0.09-3.26,1.67-3.27,1.69
			c-0.07,0.17-0.08,0.3-0.03,0.39c0.06,0.11,0.2,0.13,0.2,0.13c0.52,0.13,0.68-0.27,0.68-0.27c0-0.01,0.17-0.49,1.27-0.77
			c0.03-0.01,0.05,0,0.06,0.02c0.01,0.02,0.02,0.04,0.01,0.06c-0.06,0.15-0.09,0.32-0.09,0.48c0,0.71,0.58,1.29,1.29,1.29
			c0.71,0,1.29-0.58,1.29-1.29c0-0.18-0.04-0.35-0.1-0.51c-0.01-0.02,0-0.05,0.01-0.06c0.02-0.02,0.04-0.02,0.06-0.02
			c0.45,0.17,0.79,0.48,1,0.9c0.07,0.15,0.22,0.24,0.74,0.24c0.12,0,0.27-0.02,0.33-0.11c0.04-0.06,0.02-0.14,0.02-0.16
			C119.57,50.24,118.73,49.83,118.72,49.83"/>
		<path class="st1" d="M123.58,51.86c0.52,0,0.67-0.09,0.74-0.24c0.21-0.42,0.54-0.73,1-0.9c0.02-0.01,0.05,0,0.07,0.01
			c0.02,0.02,0.02,0.04,0.01,0.07c-0.07,0.16-0.1,0.33-0.1,0.51c0,0.71,0.58,1.29,1.29,1.29c0.71,0,1.29-0.58,1.29-1.29
			c0-0.16-0.03-0.32-0.09-0.48c-0.01-0.02-0.01-0.04,0.01-0.06c0.01-0.02,0.04-0.02,0.06-0.02c1.08,0.27,1.26,0.72,1.28,0.78
			c0.02,0.04,0.19,0.38,0.65,0.26c0.1-0.02,0.18-0.06,0.22-0.13c0.05-0.09,0.04-0.22-0.03-0.39c-0.01-0.02-0.73-1.6-3.27-1.69
			c-0.17-0.01-1.64-0.05-2.3,0.25c-0.01,0-0.85,0.42-1.16,1.75c-0.02,0.07-0.02,0.13,0.02,0.18
			C123.31,51.84,123.47,51.86,123.58,51.86"/>
		<path class="st1" d="M112.33,49.6L112.33,49.6c0.01,0,0.01,0,0.01,0c0.05,0.01,0.11,0.02,0.15,0.02c0.3,0,0.4-0.24,0.4-0.25
			c0.03-0.07,0.73-1.72,6.52-0.79c0,0,0.22,0.04,0.33-0.06c0.06-0.05,0.08-0.15,0.06-0.27c-0.01-0.04-0.15-1.11-0.61-1.19
			c-0.62-0.11-1.3-0.17-2.01-0.17c-0.76,0-1.29,0.07-1.32,0.07c-3.02,0.32-3.68,2.18-3.68,2.2c-0.06,0.15-0.07,0.26-0.03,0.33
			C112.21,49.57,112.31,49.59,112.33,49.6"/>
		<path class="st1" d="M161.07,112.37c0.03-0.22-0.06-0.44-0.23-0.58c-0.14-0.12-0.32-0.17-0.5-0.15c0.15-0.3,0.28-0.61,0.39-0.93
			c0.49-1.34,0.75-2.89,0.77-4.61c0-0.22-0.1-0.43-0.29-0.55c-0.15-0.1-0.32-0.13-0.49-0.1c0.11-0.29,0.2-0.6,0.28-0.91
			c0.36-1.39,0.46-2.96,0.31-4.66c-0.02-0.22-0.15-0.41-0.34-0.52c-0.16-0.08-0.34-0.1-0.51-0.05c0.09-0.34,0.17-0.71,0.23-1.07
			c0.22-1.42,0.17-2.99-0.15-4.67c-0.04-0.22-0.19-0.4-0.39-0.48c-0.12-0.05-0.26-0.06-0.38-0.03c0.05-0.25,0.08-0.51,0.11-0.76
			c0.15-1.42,0.03-2.99-0.36-4.66c-0.05-0.21-0.2-0.39-0.41-0.46c-0.21-0.08-0.44-0.04-0.61,0.09c0,0-0.02,0.01-0.05,0.04
			c0.03-0.38,0.04-0.78,0.03-1.19c-0.04-1.43-0.38-2.97-1-4.56c-0.08-0.21-0.26-0.36-0.47-0.4c-0.19-0.04-0.39,0.01-0.54,0.13
			c-0.01-0.36-0.04-0.72-0.09-1.09c-0.19-1.42-0.68-2.91-1.47-4.44c-0.1-0.2-0.29-0.33-0.51-0.35c-0.2-0.02-0.39,0.05-0.52,0.18
			c-0.05-0.34-0.12-0.67-0.2-1.01c-0.36-1.39-1.02-2.82-1.97-4.24c-0.12-0.18-0.33-0.29-0.55-0.29c-0.22,0-0.42,0.12-0.54,0.3
			c0,0-0.01,0.01-0.02,0.03c-0.12-0.39-0.26-0.78-0.43-1.17c-0.57-1.31-1.46-2.62-2.63-3.87c-0.16-0.17-0.39-0.24-0.61-0.19
			c-0.17,0.04-0.32,0.15-0.42,0.3c-0.18-0.39-0.39-0.77-0.63-1.13c-0.77-1.2-1.83-2.33-3.15-3.37c-0.17-0.14-0.4-0.17-0.61-0.1
			c-0.18,0.06-0.32,0.2-0.39,0.38c-0.82-1.12-1.96-1.97-3.4-2.55c0.18,0.02,0.36,0.03,0.53,0.04c1.9,0.12,3.24-0.29,3.29-0.3
			c0.45-0.14,0.74-0.58,0.68-1.05c-0.06-0.47-0.44-0.83-0.91-0.85c-2.02-0.1-2.78-0.51-3.74-1.04c-0.1-0.05-0.19-0.11-0.28-0.16
			l4.47-0.67c0.47-0.07,0.83-0.49,0.83-0.96c0-0.48-0.36-0.89-0.83-0.96l-4.25-0.61c0.47-0.14,0.93-0.28,1.35-0.43
			c1.8-0.63,2.88-1.51,2.93-1.55c0.36-0.3,0.46-0.82,0.22-1.23c-0.23-0.41-0.72-0.6-1.17-0.43c-1.91,0.69-2.77,0.6-3.86,0.48
			c-0.1-0.01-0.2-0.02-0.31-0.03l3.87-2.33c0.41-0.25,0.58-0.77,0.4-1.21c-0.18-0.44-0.67-0.69-1.13-0.57l-4.17,1.07
			c0.38-0.31,0.75-0.62,1.1-0.93c1.43-1.27,2.08-2.5,2.11-2.55c0.22-0.42,0.11-0.94-0.26-1.22c-0.37-0.29-0.9-0.27-1.25,0.05
			c-1.5,1.37-2.33,1.62-3.38,1.93c-0.09,0.03-0.19,0.06-0.29,0.09l2.68-3.63c0.29-0.39,0.24-0.93-0.09-1.27
			c-0.34-0.34-0.88-0.38-1.26-0.09l-3.46,2.6c0.24-0.44,0.47-0.88,0.67-1.29c0.82-1.7,0.97-3.11,0.97-3.17
			c0.04-0.47-0.25-0.91-0.71-1.03c-0.45-0.13-0.93,0.09-1.13,0.52c-0.86,1.84-1.53,2.39-2.39,3.09c-0.07,0.06-0.14,0.12-0.22,0.18
			l1.1-4.37c0.12-0.46-0.13-0.95-0.57-1.14c-0.44-0.18-0.96-0.01-1.2,0.4l-2.22,3.75c0.06-0.51,0.1-1,0.13-1.47
			c0.11-1.91-0.3-3.25-0.31-3.31c-0.14-0.45-0.58-0.74-1.05-0.68c-0.47,0.06-0.82,0.45-0.84,0.92c-0.09,2.03-0.5,2.8-1.03,3.76
			c-0.04,0.08-0.09,0.16-0.14,0.25l-0.65-4.45c-0.07-0.48-0.48-0.83-0.96-0.83c-0.48,0-0.89,0.36-0.96,0.84l-0.59,4.23
			c-0.13-0.46-0.27-0.91-0.42-1.33c-0.62-1.79-1.5-2.89-1.54-2.94c-0.3-0.37-0.82-0.46-1.23-0.23c-0.41,0.23-0.59,0.73-0.43,1.17
			c0.68,1.91,0.59,2.78,0.47,3.89c-0.01,0.1-0.02,0.21-0.03,0.31l-2.34-3.9c-0.25-0.41-0.76-0.58-1.2-0.4
			c-0.44,0.19-0.68,0.68-0.56,1.14l1.07,4.16c-0.3-0.38-0.61-0.75-0.9-1.08c-1.23-1.39-2.41-2.05-2.55-2.12
			c-0.42-0.22-0.93-0.11-1.22,0.26c-0.29,0.38-0.27,0.9,0.05,1.25c1.36,1.5,1.61,2.34,1.92,3.39c0.03,0.1,0.06,0.2,0.09,0.31
			l-3.64-2.7c-0.38-0.28-0.93-0.24-1.27,0.1c-0.33,0.34-0.37,0.89-0.09,1.27l2.58,3.45c-0.43-0.24-0.85-0.46-1.26-0.66
			c-1.71-0.83-3.1-0.97-3.16-0.98c-0.47-0.04-0.9,0.26-1.03,0.71c-0.12,0.46,0.1,0.94,0.52,1.14c1.83,0.87,2.38,1.54,3.08,2.41
			c0.06,0.07,0.12,0.15,0.18,0.22l-4.38-1.1c-0.46-0.12-0.95,0.13-1.13,0.57c-0.18,0.44-0.01,0.96,0.4,1.21l3.72,2.22
			c-0.5-0.06-0.98-0.1-1.43-0.13c-1.89-0.11-3.23,0.3-3.29,0.31c-0.45,0.14-0.74,0.58-0.68,1.05c0.06,0.47,0.44,0.83,0.92,0.85
			c2.02,0.09,2.78,0.51,3.75,1.04c0.08,0.05,0.17,0.09,0.25,0.14l-4.45,0.66c-0.47,0.07-0.83,0.48-0.83,0.96s0.36,0.89,0.83,0.96
			l4.3,0.63c-0.48,0.14-0.95,0.29-1.39,0.44c-1.79,0.62-2.88,1.52-2.92,1.56c-0.36,0.3-0.46,0.82-0.22,1.23
			c0.23,0.41,0.73,0.59,1.17,0.43c0.96-0.35,1.7-0.52,2.41-0.56c-1.23,1.08-1.78,1.68-2.03,2c-0.2,0.26-0.39,0.52-0.56,0.79
			c-0.08-0.15-0.21-0.26-0.37-0.32c-0.21-0.07-0.44-0.03-0.61,0.1c-1.36,1.05-2.44,2.2-3.21,3.41c-0.24,0.37-0.45,0.74-0.63,1.12
			c-0.09-0.17-0.26-0.29-0.46-0.33c-0.22-0.04-0.44,0.04-0.59,0.2c-1.17,1.25-2.06,2.55-2.63,3.87c-0.16,0.36-0.3,0.73-0.41,1.1
			c-0.11-0.13-0.27-0.2-0.45-0.21c-0.23-0.01-0.43,0.09-0.56,0.27c-1.01,1.38-1.74,2.78-2.15,4.15c-0.11,0.38-0.21,0.76-0.27,1.14
			c-0.01-0.01-0.02-0.02-0.02-0.02c-0.14-0.17-0.35-0.26-0.57-0.24c-0.22,0.02-0.41,0.15-0.51,0.35c-0.8,1.52-1.3,3.01-1.51,4.42
			c-0.05,0.37-0.09,0.74-0.1,1.11c0,0,0,0,0,0c-0.16-0.15-0.38-0.22-0.6-0.16c-0.21,0.05-0.39,0.2-0.47,0.41
			c-0.6,1.61-0.91,3.14-0.94,4.58c-0.01,0.37,0.01,0.73,0.04,1.09c-0.17-0.12-0.39-0.15-0.59-0.08c-0.21,0.08-0.36,0.25-0.41,0.46
			c-0.39,1.66-0.52,3.23-0.36,4.66c0.03,0.28,0.07,0.55,0.12,0.83c-0.11-0.01-0.22,0-0.32,0.05c-0.2,0.08-0.35,0.26-0.39,0.48
			c-0.32,1.68-0.37,3.25-0.15,4.67c0.06,0.38,0.14,0.74,0.23,1.1c-0.11,0-0.2,0.02-0.29,0.07c-0.2,0.1-0.33,0.29-0.36,0.51
			c-0.21,1.7-0.16,3.27,0.15,4.67c0.07,0.32,0.15,0.63,0.25,0.94c-0.16-0.03-0.33,0-0.47,0.09c-0.19,0.12-0.3,0.32-0.31,0.54
			c-0.03,1.71,0.18,3.27,0.64,4.63c0.14,0.41,0.3,0.82,0.49,1.2c-0.09-0.03-0.14-0.04-0.14-0.04c-0.21-0.06-0.44,0-0.6,0.15
			c-0.16,0.15-0.24,0.37-0.21,0.59c0.27,1.69,0.75,3.19,1.44,4.45c0.14,0.26,0.28,0.5,0.44,0.74c-0.13,0.03-0.25,0.09-0.34,0.19
			c-0.15,0.16-0.21,0.39-0.16,0.6c0.39,1.67,0.99,3.12,1.76,4.33c0.19,0.3,0.4,0.59,0.62,0.86c-0.2,0.01-0.37,0.1-0.49,0.26
			c-0.13,0.18-0.17,0.41-0.09,0.62c0.58,1.61,1.34,2.99,2.25,4.1c0.21,0.26,0.43,0.5,0.66,0.73c-0.18,0.04-0.33,0.15-0.42,0.31
			c-0.11,0.19-0.12,0.43-0.02,0.63c0.77,1.53,1.68,2.81,2.71,3.81c0.23,0.22,0.47,0.43,0.71,0.63c-0.17,0.06-0.3,0.18-0.37,0.35
			c-0.09,0.2-0.07,0.44,0.05,0.62c0.92,1.44,1.97,2.63,3.1,3.51c0.36,0.28,0.73,0.53,1.11,0.76c-0.12,0.03-0.19,0.06-0.2,0.06
			c-0.21,0.07-0.37,0.25-0.42,0.46c-0.05,0.22,0.01,0.44,0.16,0.6c1.18,1.23,2.39,2.21,3.61,2.9c0.99,0.56,1.99,0.94,2.97,1.13
			c0.82,0.15,1.65,0.17,2.35,0.04c2.15,1.53,4.44,2.81,6.78,3.81c1.94,0.82,3.92,1.45,5.91,1.88c0.29,0.06,0.57,0.12,0.87,0.17
			l0.67,0.12c0.44,0.14,0.83,0.24,1.11,0.29c-0.04,0.21-0.06,0.41-0.06,0.62c0,0.23,0.03,0.46,0.08,0.69
			c-0.71,0.69-3.17,2.88-6.7,3.31l-0.21,0.03l0.11,0.18c0.14,0.22,0.44,0.67,0.97,1.15l0.05,0.04l0.07-0.01
			c3.14-0.6,5.38-2.31,6.46-3.3c0.08,0.09,0.17,0.17,0.27,0.25c-0.24,0.91-1.19,3.03-4.82,4.02l-0.39,0.1l0.37,0.15
			c0.65,0.27,1.37,0.47,2.14,0.58l0.04,0.01l0.04-0.02c2.71-1.24,3.68-3.14,4.02-4.19c0.35,0.06,0.71,0.06,1.07,0
			c0.34,1.06,1.31,2.95,4.02,4.19l0.04,0.02l0.04-0.01c0.76-0.11,1.48-0.31,2.14-0.58l0.37-0.15l-0.38-0.1
			c-3.63-0.99-4.58-3.1-4.82-4.01c0.1-0.08,0.19-0.17,0.28-0.26c1.08,0.99,3.31,2.7,6.45,3.29l0.07,0.01l0.05-0.04
			c0.53-0.48,0.84-0.93,0.97-1.15l0.11-0.18l-0.21-0.03c-3.42-0.42-5.79-2.43-6.68-3.3c0.06-0.23,0.08-0.47,0.08-0.71
			c0-0.21-0.02-0.42-0.06-0.62c0.36-0.08,0.71-0.17,1.03-0.27l0.76-0.13c0.94-0.16,1.86-0.36,2.73-0.59
			c1.98-0.53,3.94-1.27,5.83-2.21c2.67-1.32,4.44-2.64,4.98-3.06c0.7,0.13,1.54,0.12,2.36-0.04c0.98-0.18,1.98-0.57,2.97-1.13
			c1.22-0.69,2.43-1.67,3.61-2.9c0.15-0.16,0.21-0.39,0.16-0.6c-0.05-0.22-0.21-0.39-0.42-0.46c-0.01,0-0.07-0.02-0.16-0.05
			c0.39-0.23,0.77-0.48,1.13-0.77c1.13-0.88,2.18-2.07,3.1-3.51c0.12-0.19,0.14-0.42,0.05-0.62c-0.07-0.16-0.21-0.29-0.37-0.35
			c0.24-0.19,0.48-0.41,0.71-0.63c1.03-1,1.95-2.28,2.72-3.81c0.1-0.2,0.09-0.43-0.02-0.63c-0.11-0.19-0.31-0.31-0.52-0.32
			c0.25-0.25,0.49-0.52,0.72-0.79c0.91-1.11,1.67-2.49,2.25-4.1c0.07-0.2,0.04-0.42-0.07-0.59c-0.11-0.17-0.31-0.28-0.51-0.29
			c-0.01,0-0.03,0-0.06,0h0c0.21-0.26,0.42-0.53,0.61-0.82c0.79-1.19,1.41-2.64,1.83-4.3c0.05-0.21,0-0.44-0.15-0.6
			c-0.15-0.16-0.36-0.24-0.58-0.2c0.2-0.31,0.38-0.63,0.55-0.96C160.43,115.58,160.86,114.07,161.07,112.37 M160.32,107.01
			L160.32,107.01c0.02,0.01,0.03,0.04,0.03,0.06c-0.08,1.17-0.3,2.25-0.64,3.2c-0.35,0.96-0.82,1.8-1.42,2.5
			c-0.7,0.83-1.42,1.27-1.7,1.42c-0.01,0.01-0.02,0.01-0.03,0.01c-0.02,0-0.04-0.01-0.05-0.02c-0.94-1.28-1.4-2.86-1.37-4.68
			c0.01-0.58,0.07-1.17,0.19-1.76c0-0.02,0.02-0.04,0.05-0.05c0.02-0.01,0.05,0,0.06,0.02c0.83,1.02,1.29,2.36,1.31,2.42
			c0.06,0.19,0.23,0.31,0.43,0.33c0.01,0,0.02,0,0.03,0c0.18,0,0.35-0.1,0.43-0.27c0.78-1.63,1.85-2.61,2.61-3.16
			C160.27,107,160.3,107,160.32,107.01 M160.16,100.91c0.02-0.01,0.04-0.02,0.07-0.01c0.02,0.01,0.04,0.03,0.04,0.06
			c0.03,1.18-0.08,2.27-0.32,3.25c-0.25,0.99-0.64,1.88-1.16,2.63c-0.61,0.89-1.28,1.39-1.55,1.57c-0.01,0.01-0.02,0.01-0.03,0.01
			c-0.02,0-0.03-0.01-0.05-0.02c-1.66-1.88-1.82-4.68-1.76-6.18c0-0.03,0.02-0.05,0.04-0.06c0.02-0.01,0.05,0,0.07,0.01
			c0.89,0.97,1.47,2.13,1.5,2.18c0.09,0.18,0.26,0.28,0.46,0.27c0.19-0.01,0.36-0.14,0.42-0.32
			C158.48,102.61,159.45,101.53,160.16,100.91 M159.5,94.72L159.5,94.72c0.02-0.02,0.04-0.03,0.06-0.02
			c0.02,0.01,0.04,0.03,0.04,0.05c0.15,1.17,0.14,2.27-0.01,3.26c-0.15,1.01-0.45,1.93-0.9,2.73c-0.53,0.96-1.17,1.53-1.41,1.74
			c-0.01,0.01-0.02,0.01-0.04,0.01c-0.01,0-0.03-0.01-0.04-0.01c-1.64-1.37-2.14-4.32-2.29-5.95c0-0.03,0.01-0.05,0.04-0.06
			c0.02-0.01,0.05-0.01,0.07,0.01c0.96,0.88,1.65,1.97,1.65,1.98c0.1,0.16,0.29,0.25,0.48,0.22c0.19-0.03,0.34-0.17,0.39-0.36
			C157.99,96.57,158.85,95.4,159.5,94.72 M158.53,88.83L158.53,88.83c0.02-0.02,0.04-0.02,0.06-0.02c0.02,0.01,0.04,0.03,0.05,0.05
			c0.2,1.16,0.25,2.26,0.15,3.26c-0.1,1.02-0.36,1.95-0.77,2.77c-0.48,0.97-1.07,1.57-1.3,1.78c-0.01,0.01-0.03,0.02-0.04,0.02
			c-0.01,0-0.03,0-0.04-0.02c-1.38-1.17-2.03-2.89-2.34-4.13c-0.14-0.56-0.24-1.14-0.3-1.73c0-0.03,0.01-0.05,0.03-0.06
			c0.02-0.01,0.05-0.01,0.07,0.01c1.02,0.83,1.79,1.94,1.8,1.95c0.11,0.16,0.3,0.24,0.49,0.2c0.19-0.04,0.34-0.18,0.37-0.38
			C157.11,90.75,157.92,89.54,158.53,88.83 M126.77,120.88c0.06,0.18,0.19,0.33,0.37,0.42c2.02,0.99,3.68,3.05,4.31,3.89
			c0.01,0.01,0.01,0.02,0,0.03c-0.08,0.17-0.17,0.33-0.29,0.46c-0.33,0.38-0.81,0.58-1.43,0.58c-0.03,0-0.06,0-0.09,0
			c-0.01,0-0.02-0.01-0.02-0.01c-0.21-0.46-0.59-1.02-1.13-1.65c-0.71-0.83-2.19-1.87-2.2-1.88c-0.33-0.23-0.79-0.15-1.02,0.18
			c-0.23,0.33-0.15,0.79,0.18,1.02c0.38,0.27,1.45,1.08,1.94,1.64c0.61,0.71,0.83,1.13,0.91,1.31c0,0.01,0,0.02,0,0.02
			c-0.08,0.16-0.21,0.4-0.42,0.6c-0.34,0.33-0.75,0.45-1.26,0.38c-0.01,0-0.02-0.01-0.02-0.01c-0.2-0.46-0.67-1.37-1.54-2.35
			c-0.27-0.3-0.73-0.33-1.03-0.06c-0.15,0.13-0.23,0.31-0.24,0.5c-0.01,0.2,0.05,0.38,0.18,0.53c0.63,0.71,1.01,1.36,1.21,1.79
			c0.01,0.01,0,0.03-0.01,0.03c-0.16,0.11-0.34,0.2-0.52,0.27c-0.48,0.19-1,0.25-1.55,0.16c-0.01,0-0.02-0.01-0.02-0.02
			c0-0.01,0-0.01,0-0.02c0.25-0.35,0.39-0.72,0.43-1.09c0.05-0.44-0.04-1.11-0.72-1.78c-0.36-0.36-1.07-0.68-2.02-0.5
			c-0.01,0-0.01,0-0.02,0c-0.01-0.01-0.01-0.01-0.01-0.02c-0.05-0.53-0.31-1-0.79-1.42c-0.74-0.64-1.59-0.82-2.54-0.53
			c-0.02,0.01-0.03,0.01-0.05,0.02l-0.03,0.01c-0.01,0.01-0.03,0-0.03-0.01c-0.13-0.38-0.45-0.91-1.25-1.31
			c-0.69-0.34-1.45-0.39-2.22-0.14c-0.01,0-0.02,0-0.03-0.01c-0.67-0.59-1.57-0.7-1.82-0.72c-1.07-0.15-2.52,0.39-3.44,1.27
			c0,0,0,0,0,0.01c-4.86,2.61-11.13,5.44-13.6,6.54c0,0-0.01,0-0.01,0c-0.01,0-0.02-0.01-0.03-0.01c-1.34-2.51-2.48-5.23-3.39-8.08
			c-0.26-0.8-0.5-1.63-0.72-2.45c0-0.01,0-0.02,0-0.02c0-0.01,0.01-0.01,0.02-0.01c7.11-0.82,12.83-1.66,16.99-2.49
			c4.34-0.87,7.13-1.75,8.53-2.7l0.01-0.01c1.68-1.19,2.83-1.76,4.44-1.63c0.51,0.04,0.95,0.1,1.36,0.16c0.01,0,0.02,0.01,0.02,0.02
			c0,0.01-0.01,0.02-0.02,0.03c-0.41,0.14-0.78,0.33-1.15,0.59c-0.66,0.46-1.07,0.8-1.43,1.09c-0.37,0.3-0.66,0.54-1.12,0.84
			c-0.32,0.21-0.75,0.42-1.17,0.63c-0.96,0.47-1.72,0.85-1.96,1.47l-0.03,0l0.02,0.01c-0.25,0.68-0.15,1.29,0.32,1.95
			c0.72,1.01,1.91,0.94,2.87,0.89c1.08-0.06,2.41-0.46,3.38-1.02c0.35-0.2,0.66-0.41,0.93-0.59c0.43-0.29,0.81-0.53,1.08-0.59
			c0.01,0,0.03-0.01,0.04-0.01c0.88-0.24,1.86-0.14,3.02,0.31c1.03,0.4,2.04,1.02,2.97,1.63c2.26,1.47,3.92,3.47,4.37,4.05
			c0.01,0.01,0.01,0.01,0.01,0.02c-0.04,0.26-0.14,0.61-0.42,0.88c-0.28,0.26-0.69,0.4-1.24,0.41c-0.01,0-0.02,0-0.02-0.01
			c-0.68-0.92-2.51-3.19-4.84-4.34c-0.36-0.18-0.8-0.03-0.98,0.34C126.72,120.49,126.7,120.69,126.77,120.88 M121.25,128.4
			c-0.02,0.01-0.03,0.02-0.05,0.04l-0.01,0c-0.3,0.24-1.25,0.83-2.04,0.83c-0.09,0-0.18-0.01-0.26-0.02
			c-0.15-0.03-0.38-0.1-0.61-0.37c-0.01-0.01-0.01-0.02,0-0.03c0.37-0.82,1.21-1.36,1.96-1.8c1-0.58,1.46-0.25,1.51-0.21
			c0.32,0.31,0.3,0.51,0.29,0.58C122,127.8,121.49,128.25,121.25,128.4l-0.01-0.02L121.25,128.4z M112.81,124.29
			c1.04-1,1.85-1.3,2.56-0.95c0.2,0.1,0.46,0.27,0.53,0.49c0.02,0.07,0.03,0.16,0.01,0.25c0,0.01,0,0.01-0.01,0.02
			c-0.17,0.11-0.32,0.22-0.49,0.34c-1.09,0.77-1.76,1.58-1.98,2.41c0,0.01-0.01,0.02-0.02,0.02h0c-0.18-0.03-0.34-0.07-0.49-0.12
			c-0.9-0.3-0.94-0.79-0.96-0.95C111.92,125.33,112.15,124.92,112.81,124.29 M111.79,123.23c-0.5,0.48-1.04,1.08-1.24,1.86
			c0,0.01-0.01,0.02-0.02,0.02h0c-0.15-0.01-0.3-0.03-0.43-0.05c-0.52-0.08-0.9-0.26-0.99-0.46c-0.04-0.1-0.17-0.39,0.19-0.86
			c0.52-0.69,1.72-1.23,2.47-1.12c0.02,0,0.04,0.01,0.06,0.01c0.1,0.01,0.28,0.04,0.47,0.1c0.01,0,0.01,0.01,0.02,0.02
			c0,0.01,0,0.02-0.01,0.02C112.14,122.91,111.98,123.05,111.79,123.23 M116.24,125.64c1.34-0.94,2.05-1.27,2.73-0.67
			c0.2,0.18,0.3,0.34,0.29,0.49c-0.01,0.27-0.32,0.63-0.6,0.85c-0.85,0.59-1.42,1.24-1.74,1.98c0,0.01-0.01,0.01-0.02,0.01
			c-0.18,0.03-0.47,0.07-0.79,0.07c-0.36,0-0.75-0.05-1.01-0.23c-0.12-0.08-0.26-0.22-0.3-0.56
			C114.73,126.83,115.67,126.04,116.24,125.64 M131.07,60.78c-0.02-0.01-0.03-0.04-0.02-0.06c0-0.02,0.02-0.04,0.04-0.05
			c0.61-0.2,1.24-0.31,1.84-0.35c1.73-0.1,3.18,0.45,4.31,1.66c0.01,0.02,0.02,0.04,0.01,0.06c0,0.02-0.02,0.04-0.04,0.04
			c-0.36,0.13-0.93,0.28-1.63,0.31c-0.08,0-0.16,0.01-0.24,0.01C133.88,62.39,132.44,61.85,131.07,60.78 M133.1,63.25h-23.04
			c3.68-1.84,7.54-2.78,11.52-2.78C125.55,60.46,129.42,61.4,133.1,63.25 M136,58.52c-0.52,0.21-1.33,0.49-2.25,0.66
			c-0.58,0.11-1.14,0.16-1.65,0.16c-1.24,0-2.31-0.31-3.17-0.93c-0.02-0.01-0.03-0.03-0.03-0.05c0-0.02,0.01-0.04,0.03-0.05
			c0.4-0.23,1.04-0.54,1.87-0.74c0.88-0.21,1.79-0.24,2.69-0.08c0.84,0.14,1.69,0.45,2.52,0.91c0.02,0.01,0.03,0.03,0.03,0.06
			C136.04,58.5,136.03,58.52,136,58.52 M130.48,56.58c-0.58,0.27-1.58,0.63-3.08,0.81c-0.2,0.02-0.36,0.17-0.41,0.37
			c-0.05,0.19,0.03,0.4,0.19,0.51c0.01,0.01,1.17,0.81,2.02,1.88c0.02,0.02,0.02,0.04,0.01,0.07c-0.01,0.02-0.03,0.03-0.06,0.03
			c-1.41-0.04-4.07-0.46-5.96-2.73c-0.02-0.02-0.02-0.06,0-0.08c0.3-0.29,0.83-0.7,1.63-1c1.51-0.57,3.46-0.56,5.64,0.03
			c0.02,0.01,0.04,0.03,0.05,0.05C130.52,56.55,130.5,56.57,130.48,56.58 M124.17,55.54c-0.5,0.39-1.41,0.96-2.89,1.41
			c-0.2,0.06-0.33,0.24-0.34,0.45c-0.01,0.21,0.12,0.39,0.31,0.46c0.01,0,1.27,0.49,2.29,1.34c0.02,0.02,0.03,0.04,0.02,0.07
			c-0.01,0.02-0.03,0.04-0.05,0.04c-0.42,0.04-0.84,0.06-1.26,0.06c-1.44,0-3.5-0.25-5.07-1.46c-0.03-0.02-0.03-0.05-0.01-0.08
			c0.24-0.34,0.67-0.84,1.39-1.3c1.38-0.88,3.31-1.26,5.59-1.11c0.03,0,0.05,0.02,0.05,0.04C124.2,55.5,124.19,55.52,124.17,55.54
			 M117.69,55.64c-0.37,0.51-1.13,1.27-2.61,2c-0.18,0.09-0.29,0.29-0.26,0.5c0.03,0.21,0.18,0.37,0.39,0.41
			c0.01,0,1.34,0.25,2.53,0.85c0.02,0.01,0.03,0.03,0.03,0.06c0,0.03-0.02,0.05-0.04,0.05c-0.56,0.18-1.12,0.33-1.68,0.43
			c-0.59,0.1-1.18,0.16-1.75,0.16c-1.13,0-2.15-0.21-3.04-0.63c-0.03-0.01-0.04-0.05-0.03-0.08c0.15-0.38,0.46-0.97,1.07-1.57
			c1.17-1.17,3.02-1.96,5.34-2.29c0.03,0,0.05,0.01,0.06,0.03C117.7,55.6,117.7,55.62,117.69,55.64 M111.62,56.72L111.62,56.72
			c-0.3,0.69-0.93,1.76-2.29,2.93c-0.15,0.13-0.21,0.35-0.14,0.53c0.07,0.19,0.25,0.31,0.45,0.31h0.01c0.1,0,0.62,0,1.29,0.09
			c0.5,0.07,0.96,0.16,1.36,0.29c0.02,0.01,0.04,0.03,0.04,0.05c0,0.03-0.01,0.05-0.03,0.06c-0.53,0.27-1.07,0.5-1.61,0.69
			c-1.06,0.37-2.09,0.55-3.06,0.55c-0.64,0-1.25-0.08-1.8-0.24c-0.03-0.01-0.05-0.04-0.04-0.07c0.22-1.08,1.21-3.74,5.74-5.28
			c0.02-0.01,0.05,0,0.06,0.02C111.63,56.67,111.63,56.69,111.62,56.72 M135.82,64.8c1.26,0.81,2.47,1.72,3.63,2.74h-35.74
			c1.16-1.01,2.38-1.93,3.63-2.74H135.82z M141.12,69.1c0.86,0.85,1.69,1.77,2.48,2.74h-17.42c-2.32-1.69-4.8-1.58-5.17-1.55
			c-0.32,0.01-2.67,0.1-4.84,1.55H99.55c0.8-0.97,1.63-1.88,2.48-2.74H141.12z M115.86,89.35c-1.47-0.13-2.71,0.27-4.25,0.94
			c-0.01,0-0.02,0-0.03,0c-0.01-0.01-0.01-0.02-0.01-0.03c0.02-0.13,0.04-0.27,0.07-0.4c0.81-4.07,2.4-6.86,3.59-8.47
			c0.9-1.21,1.71-1.97,2.12-2.32c0.13-0.09,0.25-0.19,0.37-0.3c0.34-0.3,0.4-0.81,0.12-1.17c-0.28-0.36-0.78-0.44-1.16-0.18
			c-0.03,0.02-0.17,0.12-0.4,0.32c-0.64,0.45-1.27,0.58-1.67,0.35c-0.33-0.19-0.48-0.62-0.39-1.16c0.15-0.9,1.16-2.09,1.53-2.48
			c0.01-0.01,0.03-0.03,0.04-0.05c2.01-2.38,5.22-2.44,5.26-2.44c0.03,0,1.08-0.09,2.35,0.33c1.72,0.57,3.05,1.75,3.95,3.51
			c1.27,2.49,2.23,5,2.94,7.68c0,0.01,0,0.02-0.01,0.03c-0.01,0.01-0.02,0.01-0.03,0.01c-1.83-0.62-3.3-1.81-3.36-1.86
			c-0.36-0.3-0.9-0.25-1.2,0.11c-0.3,0.36-0.25,0.9,0.11,1.2c0.09,0.08,2.28,1.88,4.92,2.45c0.01,0,0.02,0.01,0.02,0.02
			c0.2,0.95,0.38,1.95,0.57,3.14c0,0.01,0,0.02-0.01,0.03c-0.01,0-0.02,0.01-0.03,0c-0.86-0.48-1.92-0.76-2.78-0.99
			c-0.56-0.15-1.1-0.29-1.51-0.46c-1.81-0.73-3.37-1.95-3.38-1.96c-0.37-0.29-0.9-0.23-1.19,0.14c-0.29,0.37-0.23,0.91,0.14,1.2
			c0.07,0.06,1.74,1.38,3.8,2.21c0.51,0.21,1.09,0.36,1.7,0.52c2.3,0.61,3.41,1.12,3.45,2.33l0,0.01c-0.02,0.21-0.18,0.38-0.32,0.53
			c-0.67,0.73-2.04,0.88-2.74,0.88c-0.09,0-2.44-0.01-2.44-0.01c-0.43-0.01-2.65-0.1-4.58-1.34
			C119.15,90.21,117.43,89.48,115.86,89.35 M120.32,93.02c0,0.01-0.01,0.02-0.02,0.02h-6.86c-0.71,0-1.2-0.18-1.5-0.55
			c-0.08-0.1-0.15-0.22-0.21-0.35c-0.01-0.01,0-0.03,0.01-0.03c3.09-1.42,4.54-1.68,8.57,0.89C120.32,92.99,120.32,93,120.32,93.02
			 M122.61,99.16h31.44c0.08,0.98,0.14,1.96,0.17,2.95h-31.62V99.16z M122.61,97.6v-2.75h30.92c0.15,0.91,0.27,1.83,0.37,2.75
			H122.61z M132.47,93.29c0.31-0.35,0.54-0.75,0.69-1.21c0.02-0.05,0.03-0.1,0.04-0.16c0.11-0.42,0.15-0.88,0.11-1.37h19.37
			c0.22,0.9,0.41,1.82,0.58,2.74H132.47z M133.1,89c-0.13-0.87-0.28-1.78-0.46-2.74h18.8c0.08,0.23,0.15,0.46,0.23,0.69
			c0.22,0.68,0.42,1.36,0.61,2.05H133.1z M132.33,84.71c-0.19-0.88-0.42-1.79-0.7-2.74h18.16c0.39,0.89,0.76,1.81,1.11,2.74H132.33z
			 M131.14,80.42c-0.3-0.88-0.65-1.8-1.05-2.73h17.53c0.51,0.89,0.99,1.8,1.44,2.73H131.14z M129.4,76.13
			c-0.17-0.36-0.35-0.72-0.53-1.08c-0.32-0.63-0.68-1.18-1.06-1.66h17.02c0.65,0.88,1.28,1.8,1.87,2.74H129.4z M114.44,73.39
			c-0.36,0.39-1.34,1.52-1.75,2.74H96.47c0.59-0.94,1.22-1.86,1.87-2.74H114.44z M112.54,77.68c0.11,0.82,0.55,1.51,1.24,1.9
			c0.15,0.09,0.32,0.16,0.48,0.21c0.01,0,0.01,0.01,0.02,0.02c0,0.01,0,0.02,0,0.02c-0.14,0.18-0.29,0.38-0.44,0.58H94.09
			c0.45-0.94,0.94-1.85,1.44-2.73H112.54z M112.8,81.97c-0.47,0.79-0.94,1.7-1.37,2.74H92.26c0.35-0.93,0.72-1.84,1.11-2.74H112.8z
			 M110.84,86.26c-0.29,0.84-0.54,1.75-0.76,2.74h-19.2c0.19-0.69,0.39-1.37,0.61-2.05c0.07-0.23,0.15-0.46,0.23-0.69H110.84z
			 M109.84,90.56c-0.02,0.39-0.02,0.76,0.03,1.12c0,0.05,0.01,0.11,0.02,0.16c0.09,0.57,0.28,1.05,0.54,1.46H89.89
			c0.17-0.92,0.36-1.83,0.58-2.74H109.84z M120.54,94.85v2.75H89.25c0.1-0.92,0.22-1.84,0.37-2.75H120.54z M120.54,99.16v2.95H88.93
			c0.03-0.99,0.09-1.97,0.17-2.95H120.54z M120.54,103.72v6.34c0,0.01,0,0.01-0.01,0.02c-0.01,0-0.01,0.01-0.01,0.01
			c-0.07,0-0.14-0.01-0.2-0.01c-1.76,0-3.16,0.74-4.82,1.91c-2.51,1.69-10.94,3.36-25.07,4.97c-0.01,0-0.03-0.01-0.03-0.02
			c-0.99-4.19-1.49-8.57-1.49-13.03c0-0.07,0-0.14,0-0.2H120.54z M130.72,117.75c-1.54-1.01-4.4-2.88-7.15-2.13
			c-0.54,0.12-1.02,0.43-1.56,0.8c-0.27,0.18-0.54,0.36-0.86,0.54c-0.89,0.52-2.02,0.79-2.73,0.83c-0.84,0.04-1.36,0.05-1.59-0.28
			c-0.19-0.27-0.2-0.4-0.16-0.54c0-0.01,0-0.01,0.01-0.01c0.17-0.18,0.84-0.51,1.24-0.7c0.46-0.23,0.94-0.46,1.33-0.72
			c0.53-0.34,0.88-0.63,1.25-0.93c0.35-0.28,0.73-0.6,1.35-1.03c0.87-0.61,1.8-0.63,3.21-0.66c0.22-0.01,0.45-0.01,0.68-0.02
			c0.17,0,0.34-0.01,0.52-0.02c1.52-0.07,2.86,0.42,4.91,1.16c0.59,0.22,1.26,0.46,2,0.71c0,0,0.01,0,0.01,0.01
			c0.03,0.01,2.75,0.88,6.57,1.79c3.25,0.78,8.07,1.77,12.58,2.06c0.01,0,0.02,0,0.02,0.01c0,0.01,0.01,0.02,0,0.02
			c-0.21,0.77-0.43,1.53-0.67,2.26c-0.94,2.95-2.13,5.76-3.54,8.35c0,0.01-0.01,0.02-0.02,0.02c0,0-0.01,0-0.01,0
			c-2.2-0.9-7.7-3.29-11.31-5.98c-0.73-0.52-1.24-1.05-1.48-1.33c0,0,0,0-0.01-0.01c-0.01-0.01-0.02-0.02-0.02-0.03l-0.01-0.01
			c-0.08-0.09-0.12-0.15-0.12-0.15C134.4,120.84,132.82,119.12,130.72,117.75 M133.62,113.36c-0.72-0.25-1.38-0.49-1.97-0.7
			c-2.13-0.77-3.66-1.33-5.47-1.24c-0.11,0.01-0.21,0.01-0.31,0.01c0,0-0.01,0-0.01,0c-0.98-0.48-1.91-0.85-3.22-1.09
			c-0.01,0-0.02-0.01-0.02-0.03v-6.59h31.64c0,0.07,0,0.13,0,0.2c0,4.52-0.52,8.96-1.54,13.21c0,0.01-0.01,0.02-0.03,0.02l0,0
			C144.11,116.66,134.04,113.49,133.62,113.36 M156.66,82.87c0.01-0.02,0.04-0.03,0.06-0.03c0.02,0,0.04,0.02,0.05,0.04
			c0.36,1.12,0.56,2.2,0.59,3.21c0.04,1.02-0.09,1.98-0.38,2.85c-0.34,1.02-0.85,1.7-1.05,1.94c-0.01,0.01-0.03,0.02-0.05,0.02
			c-0.01,0-0.02,0-0.03-0.01c-1.28-0.81-2.27-2.09-2.94-3.81c-0.21-0.53-0.38-1.09-0.5-1.66c0-0.02,0-0.05,0.02-0.06
			c0.02-0.01,0.05-0.01,0.07,0c1.15,0.69,2.07,1.69,2.08,1.7c0.13,0.14,0.33,0.19,0.51,0.13c0.18-0.06,0.31-0.23,0.32-0.42
			C155.53,84.97,156.15,83.65,156.66,82.87 M153.12,81.6c0.17-0.08,0.28-0.26,0.27-0.45c-0.07-1.8,0.42-3.17,0.84-4
			c0.02-0.04,0.05-0.04,0.06-0.04c0.02,0,0.04,0.02,0.05,0.04c0.47,1.08,0.78,2.13,0.92,3.13c0.14,1.01,0.11,1.98-0.09,2.87
			c-0.24,1.05-0.67,1.77-0.84,2.04c-0.01,0.02-0.03,0.03-0.05,0.03c-0.01,0-0.02,0-0.03-0.01c-1.36-0.67-2.48-1.84-3.32-3.49
			c-0.26-0.51-0.49-1.04-0.67-1.6c-0.01-0.02,0-0.05,0.02-0.06c0.02-0.02,0.04-0.02,0.07-0.01c1.2,0.56,2.23,1.47,2.24,1.48
			C152.74,81.66,152.95,81.68,153.12,81.6L153.12,81.6 M150.59,76.35c0.17-0.1,0.26-0.3,0.23-0.49c-0.28-1.78,0.05-3.2,0.37-4.07
			c0.01-0.02,0.03-0.04,0.05-0.04h0c0.02,0,0.04,0.01,0.05,0.03c0.6,1.02,1.03,2.03,1.29,3.01c0.26,0.99,0.34,1.95,0.25,2.87
			c-0.11,1.07-0.45,1.83-0.6,2.11c-0.01,0.02-0.03,0.03-0.05,0.03c0,0-0.01,0-0.02,0c-1.53-0.54-2.81-1.58-3.81-3.12
			c-0.32-0.49-0.6-1.02-0.83-1.57c-0.01-0.02,0-0.05,0.01-0.06c0.02-0.02,0.04-0.03,0.06-0.02c1.31,0.37,2.44,1.27,2.45,1.28
			C150.2,76.44,150.42,76.45,150.59,76.35 M146.83,71.48c0.17,0.12,0.39,0.12,0.56,0c0.16-0.12,0.24-0.34,0.17-0.53
			c-0.49-1.59-0.41-3.07-0.26-4.03c0-0.02,0.02-0.04,0.05-0.05c0.02-0.01,0.05,0,0.06,0.02c0.73,0.89,1.31,1.81,1.71,2.72
			c0.42,0.94,0.65,1.87,0.71,2.79c0.06,1.03-0.13,1.81-0.25,2.18c-0.01,0.03-0.03,0.04-0.06,0.04l-0.01,0
			c-1.49-0.28-2.89-1.1-4.16-2.46c-0.42-0.45-0.81-0.94-1.16-1.46c-0.01-0.02-0.01-0.04,0-0.07c0.01-0.02,0.03-0.03,0.06-0.03
			C145.68,70.69,146.82,71.47,146.83,71.48 M143.04,67.13c0.18,0.07,0.4,0.02,0.53-0.13c0.13-0.15,0.16-0.37,0.07-0.54
			c-0.83-1.6-0.97-3.04-0.94-3.97c0-0.03,0.02-0.05,0.04-0.05c0.02-0.01,0.05-0.01,0.07,0.01c0.86,0.76,1.57,1.57,2.11,2.41
			c0.55,0.86,0.94,1.75,1.15,2.65c0.25,1.07,0.18,1.92,0.14,2.24c0,0.03-0.03,0.05-0.06,0.05c-0.03,0-0.06,0-0.09,0
			c-1.69,0-3.25-0.93-4.27-1.71c-0.5-0.39-0.99-0.83-1.46-1.32c-0.02-0.02-0.02-0.04-0.01-0.07c0.01-0.02,0.03-0.04,0.06-0.04
			C141.72,66.63,143.03,67.13,143.04,67.13 M141.55,63.2c0.4,1.03,0.45,2,0.44,2.49c0,0.03-0.03,0.06-0.06,0.06
			c-0.09,0-0.18,0.01-0.27,0.01c-2.09,0-4.53-1.42-5.8-2.26c-0.02-0.01-0.03-0.04-0.03-0.06c0.01-0.02,0.02-0.04,0.05-0.05
			c1.3-0.25,2.54,0.03,2.59,0.04c0.2,0.05,0.41-0.04,0.52-0.21c0.11-0.18,0.1-0.4-0.03-0.56c-0.82-1.03-1.33-2.23-1.61-3.05
			c-0.01-0.02,0-0.05,0.01-0.06c0.02-0.02,0.04-0.02,0.06-0.02C139.49,60.21,140.87,61.44,141.55,63.2 M102.79,57.39
			c-0.01,0-0.02,0-0.03-0.01c0-0.01,0-0.03,0.01-0.03c0.42-0.22,0.86-0.41,1.31-0.57c1.23-0.43,2.4-0.72,2.99-0.85
			c1.31-0.29,2.25-0.88,2.29-0.9c0.06-0.04,0.09-0.11,0.08-0.19c-0.02-0.07-0.07-0.13-0.15-0.14l-6.96-1.02
			c-0.01,0-0.02-0.01-0.02-0.03c0-0.01,0.01-0.02,0.02-0.02l6.96-1.03c0.08-0.01,0.15-0.09,0.15-0.17c0-0.09-0.06-0.16-0.15-0.17
			c-0.01,0-1.33-0.21-2.69-0.82c-0.4-0.18-0.74-0.37-1.06-0.54c-0.8-0.43-1.49-0.81-2.74-1.02c-0.01,0-0.02-0.01-0.02-0.03
			c0-0.01,0.01-0.02,0.02-0.03c0.47-0.04,0.95-0.04,1.43-0.02c1.3,0.08,2.49,0.26,3.09,0.37c1.32,0.23,2.41,0.05,2.46,0.05
			c0.07-0.01,0.13-0.07,0.14-0.14c0.01-0.07-0.02-0.15-0.08-0.18l-6.05-3.61c-0.01-0.01-0.02-0.02-0.01-0.03
			c0-0.02,0.02-0.02,0.03-0.02l6.83,1.72c0.08,0.02,0.17-0.02,0.2-0.1c0.03-0.08,0-0.17-0.07-0.22c-0.01-0.01-1.14-0.69-2.17-1.79
			c-0.3-0.32-0.54-0.62-0.77-0.91c-0.57-0.71-1.06-1.32-2.14-2c-0.01-0.01-0.02-0.02-0.01-0.03c0.01-0.01,0.02-0.02,0.03-0.01
			c0.45,0.14,0.9,0.32,1.33,0.53c1.17,0.57,2.2,1.2,2.71,1.53c1.14,0.73,2.2,0.98,2.25,0.99c0.07,0.02,0.15-0.01,0.19-0.08
			c0.04-0.06,0.04-0.14-0.01-0.2L107.95,40c-0.01-0.01-0.01-0.03,0-0.04c0.01-0.01,0.02-0.01,0.03,0l5.66,4.2
			c0.07,0.05,0.17,0.04,0.23-0.02c0.06-0.06,0.07-0.16,0.02-0.23c-0.01-0.01-0.78-1.07-1.32-2.49c-0.15-0.41-0.26-0.78-0.37-1.14
			c-0.26-0.87-0.48-1.63-1.22-2.67c-0.01-0.01-0.01-0.03,0-0.03c0.01-0.01,0.02-0.01,0.03,0c0.36,0.31,0.71,0.65,1.02,1
			c0.86,0.98,1.57,1.96,1.92,2.45c0.77,1.11,1.66,1.75,1.7,1.78c0.06,0.04,0.14,0.04,0.2,0c0.06-0.04,0.09-0.12,0.07-0.19
			l-1.75-6.83c0-0.01,0-0.03,0.01-0.03c0.01,0,0.03,0,0.03,0.01l3.63,6.05c0.04,0.07,0.14,0.11,0.22,0.07
			c0.08-0.03,0.13-0.12,0.1-0.2c-0.01-0.06-0.32-1.33-0.27-2.81c0.01-0.43,0.06-0.82,0.09-1.19c0.1-0.91,0.18-1.69-0.1-2.94
			c0-0.01,0-0.02,0.02-0.03c0.01-0.01,0.03,0,0.03,0.01c0.22,0.42,0.4,0.87,0.56,1.32c0.42,1.24,0.71,2.41,0.84,3.01
			c0.28,1.29,0.83,2.2,0.89,2.3c0.04,0.06,0.12,0.09,0.19,0.08c0.07-0.02,0.13-0.08,0.14-0.15l0.98-6.96c0-0.01,0.01-0.02,0.03-0.02
			c0.01,0,0.02,0.01,0.03,0.02l1.01,6.96c0.01,0.09,0.09,0.15,0.17,0.15c0.09,0,0.16-0.06,0.17-0.15c0.01-0.05,0.21-1.35,0.82-2.7
			c0.18-0.4,0.36-0.74,0.54-1.06c0.43-0.8,0.8-1.5,1.01-2.75c0-0.01,0.01-0.02,0.03-0.02c0.01,0,0.02,0.01,0.02,0.02
			c0.04,0.47,0.05,0.96,0.02,1.43c-0.07,1.31-0.26,2.5-0.36,3.1c-0.23,1.34-0.05,2.42-0.04,2.47c0.01,0.07,0.07,0.13,0.14,0.14
			c0.07,0.01,0.15-0.02,0.18-0.08l3.6-6.06c0.01-0.01,0.02-0.02,0.03-0.01c0.01,0.01,0.02,0.02,0.02,0.03l-1.71,6.84
			c-0.02,0.08,0.02,0.17,0.1,0.21c0.08,0.03,0.17,0,0.22-0.07c0.01-0.01,0.7-1.15,1.79-2.18c0.32-0.3,0.62-0.54,0.9-0.78
			c0.7-0.57,1.31-1.07,1.99-2.15c0.01-0.01,0.02-0.02,0.03-0.01c0.01,0.01,0.02,0.02,0.01,0.03c-0.15,0.45-0.32,0.9-0.53,1.33
			c-0.57,1.18-1.19,2.21-1.52,2.73c-0.73,1.15-0.97,2.21-0.98,2.26c-0.02,0.07,0.02,0.15,0.08,0.19c0.06,0.04,0.14,0.04,0.2-0.01
			l5.63-4.22c0.01-0.01,0.03-0.01,0.03,0c0.01,0.01,0.01,0.02,0,0.03l-4.19,5.67c-0.05,0.07-0.05,0.17,0.02,0.23
			c0.06,0.06,0.16,0.07,0.23,0.02c0.01-0.01,1.07-0.79,2.48-1.33c0.41-0.15,0.77-0.26,1.13-0.37c0.87-0.26,1.62-0.48,2.65-1.22
			c0.01-0.01,0.03-0.01,0.03,0c0.01,0.01,0.01,0.02,0,0.04c-0.31,0.36-0.64,0.71-1,1.02c-0.97,0.87-1.95,1.58-2.44,1.93
			c-1.11,0.79-1.74,1.67-1.77,1.71c-0.04,0.06-0.04,0.14,0,0.2c0.04,0.06,0.12,0.09,0.19,0.07l6.8-1.74c0.01-0.01,0.03,0,0.03,0.01
			c0.01,0.01,0,0.03-0.01,0.03l-6.03,3.63c-0.07,0.04-0.1,0.14-0.07,0.22c0.03,0.08,0.12,0.13,0.2,0.1c0.06-0.01,1.33-0.32,2.8-0.27
			c0.44,0.01,0.82,0.05,1.19,0.09c0.9,0.1,1.68,0.18,2.92-0.11c0.01,0,0.03,0,0.03,0.01c0,0.01,0,0.03-0.01,0.03
			c-0.42,0.22-0.86,0.41-1.31,0.56c-1.23,0.43-2.4,0.71-2.99,0.84c-1.31,0.29-2.25,0.87-2.29,0.9c-0.06,0.04-0.09,0.11-0.08,0.19
			c0.02,0.07,0.07,0.13,0.15,0.14l6.95,1c0.01,0,0.02,0.01,0.02,0.03c0,0.01-0.01,0.02-0.02,0.03l-6.95,1.05
			c-0.09,0.01-0.15,0.09-0.15,0.17c0,0.09,0.06,0.16,0.15,0.18c0.01,0,1.32,0.21,2.69,0.83c0.4,0.18,0.73,0.37,1.06,0.54
			c0.8,0.44,1.49,0.81,2.74,1.03c0.01,0,0.02,0.01,0.02,0.03c0,0.01-0.01,0.02-0.02,0.03c-0.27,0.02-0.54,0.03-0.82,0.03
			c-0.2,0-0.41-0.01-0.61-0.02c-1.3-0.08-2.49-0.27-3.08-0.37c-0.06-0.01-0.12-0.02-0.18-0.03c0,0-0.01,0-0.01,0
			c-1.09-0.48-2.21-0.72-3.33-0.72h-0.05c-0.01,0-0.01,0-0.02-0.01c0,0-0.01-0.01-0.01-0.02c0-0.05,0-0.09-0.01-0.14
			c-0.04-0.18-0.16-0.32-0.33-0.37c-1.29-0.45-2.52-0.73-3.66-0.82c-0.06,0-0.11-0.01-0.17-0.01l-0.02,0c-0.03,0-0.06,0-0.09,0
			c-0.06,0-0.12-0.01-0.18-0.01h-0.04c-0.02,0-0.03,0-0.05,0c-0.09,0-0.18,0-0.27-0.01h-0.07c-0.53,0-1.04,0.04-1.52,0.13
			c-0.01,0-0.02,0-0.02-0.01c-0.01-0.01-0.01-0.01-0.01-0.02c0,0,0-0.01,0-0.02c0-0.08-0.01-0.15-0.03-0.21
			c-0.01-0.01-0.01-0.03-0.02-0.04c-0.08-0.15-0.22-0.26-0.39-0.28c-0.11-0.02-0.22-0.03-0.33-0.04c-0.02,0-0.05,0-0.07-0.01
			l-0.04-0.01c-0.07-0.01-0.15-0.01-0.22-0.02c-0.04,0-0.09-0.01-0.13-0.01c-0.07-0.01-0.13-0.01-0.19-0.02
			c-1.31-0.1-2.51-0.05-3.58,0.17c-0.3,0.06-0.59,0.13-0.87,0.21c-0.02,0.01-0.04,0.01-0.06,0.02c-0.05,0.01-0.09,0.03-0.14,0.04
			l-0.06,0.02c-0.06,0.02-0.12,0.04-0.19,0.07h0c-0.14,0.05-0.27,0.1-0.4,0.16c-0.01,0-0.02,0-0.03,0
			c-0.01-0.01-0.01-0.02-0.01-0.03l0-0.01v0c0.01-0.02,0.01-0.04,0.01-0.05l0-0.01c0.02-0.16-0.02-0.31-0.13-0.43l0,0
			c-0.01-0.01-0.03-0.03-0.04-0.04l-0.01-0.01c-0.1-0.09-0.24-0.13-0.37-0.12c-1.7,0.14-3.19,0.49-4.44,1.03
			c-0.42,0.18-0.82,0.39-1.18,0.62c-0.01,0-0.02,0-0.03,0c-0.01,0-0.01-0.02-0.01-0.03c0.01-0.08,0.02-0.13,0.02-0.15v0c0,0,0,0,0,0
			c0.01-0.17-0.06-0.33-0.19-0.43l0,0c-0.01-0.01-0.03-0.02-0.04-0.03l-0.01-0.01c-0.02-0.01-0.03-0.02-0.04-0.02l-0.01-0.01
			c-0.11-0.05-0.24-0.06-0.35-0.03c-1.66,0.46-3.08,1.09-4.23,1.89c-0.02,0.02-0.05,0.03-0.07,0.05l-0.03,0.02
			c0,0-0.01,0.01-0.01,0.01c-0.34,0.02-0.67,0.03-0.99,0.02c-0.26-0.01-1.12-0.08-1.19-0.09C104.81,57.18,104.03,57.1,102.79,57.39
			 M105.44,58.77L105.44,58.77c0.02-0.01,0.05-0.01,0.07,0c0.02,0.01,0.03,0.03,0.03,0.06c-0.06,0.92-0.33,2.34-1.32,3.87
			c-0.1,0.16-0.1,0.37,0.01,0.53c0.11,0.16,0.3,0.24,0.49,0.2c0.01,0,1.3-0.26,2.61-0.16c0.02,0,0.05,0.02,0.05,0.04
			c0.01,0.03,0,0.05-0.02,0.07c-1.11,0.89-3.34,2.38-5.71,2.38c-0.09,0-0.17,0-0.25-0.01c-0.03,0-0.06-0.03-0.06-0.06
			C101.27,64.55,101.55,61.58,105.44,58.77 M97.2,67.54c0.2-0.89,0.59-1.78,1.14-2.64c0.55-0.85,1.29-1.68,2.18-2.46
			c0.02-0.02,0.04-0.02,0.06-0.01c0.02,0.01,0.04,0.03,0.04,0.05c0.03,0.92-0.11,2.37-0.94,3.98c-0.09,0.17-0.07,0.39,0.06,0.54
			c0.13,0.15,0.33,0.21,0.52,0.14c0.01,0,1.25-0.42,2.54-0.46c0.02,0,0.05,0.01,0.06,0.04c0.01,0.02,0,0.05-0.01,0.07
			c-0.49,0.49-0.99,0.93-1.5,1.32c-1.02,0.79-2.55,1.73-4.02,1.73c-0.06,0-0.12,0-0.17,0c-0.03,0-0.05-0.02-0.06-0.05
			C97.06,69.46,96.96,68.62,97.2,67.54 M95.88,66.83L95.88,66.83c0.02-0.02,0.04-0.02,0.06-0.02c0.02,0,0.04,0.02,0.05,0.05
			c0.18,0.91,0.27,2.35-0.3,4.08c-0.07,0.2,0,0.41,0.17,0.54c0.16,0.13,0.39,0.13,0.56,0.01c0.01-0.01,1.12-0.76,2.54-0.88
			c0.03,0,0.05,0.01,0.06,0.03c0.01,0.02,0.01,0.05,0,0.07c-0.92,1.29-2.82,3.51-5.28,3.92h-0.01c-0.03,0-0.05-0.02-0.06-0.04
			C93.31,73.49,92.81,70.54,95.88,66.83 M90.6,74.78c0.3-0.97,0.77-1.96,1.41-2.95c0.01-0.02,0.04-0.03,0.06-0.03
			c0.02,0.01,0.04,0.02,0.05,0.04c0.29,0.88,0.56,2.31,0.2,4.09c-0.04,0.21,0.06,0.42,0.24,0.52c0.19,0.1,0.41,0.07,0.56-0.08
			c0.01-0.01,1.05-1.02,2.48-1.22c0.02,0,0.04,0.01,0.06,0.03c0.01,0.02,0.02,0.04,0.01,0.06c-0.2,0.41-0.53,1.02-0.99,1.66
			c-1.09,1.5-2.39,2.48-3.86,2.91c0,0-0.01,0-0.02,0c-0.02,0-0.04-0.01-0.06-0.04c-0.13-0.29-0.45-1.07-0.51-2.15
			C90.18,76.71,90.3,75.75,90.6,74.78 M87.75,80.26c0.15-1,0.47-2.05,0.95-3.13c0.01-0.02,0.03-0.03,0.06-0.04
			c0.02,0,0.04,0.01,0.06,0.03c0.42,0.83,0.89,2.2,0.81,4.02c-0.01,0.19,0.1,0.37,0.27,0.46c0.17,0.08,0.38,0.06,0.52-0.07
			c0.05-0.04,1.13-0.97,2.38-1.51c0.02-0.01,0.05-0.01,0.06,0.01c0.02,0.01,0.02,0.04,0.02,0.06c-0.13,0.51-0.31,1.01-0.55,1.49
			c-0.77,1.57-1.98,2.78-3.62,3.6c-0.01,0-0.02,0.01-0.03,0.01c-0.02,0-0.04-0.01-0.05-0.03c-0.21-0.33-0.6-1.02-0.82-2.03
			C87.62,82.23,87.6,81.27,87.75,80.26 M86.21,82.82c0.01-0.02,0.03-0.04,0.05-0.04c0.02,0,0.05,0.01,0.06,0.03
			c0.52,0.77,1.16,2.07,1.31,3.88c0.01,0.2,0.15,0.36,0.33,0.42c0.19,0.06,0.39,0,0.51-0.15c0.01-0.01,0.91-1.09,2.16-1.8
			c0.02-0.01,0.05-0.01,0.06,0c0.02,0.01,0.03,0.04,0.03,0.06c-0.06,0.54-0.18,1.08-0.35,1.6c-0.56,1.7-1.61,3.05-3.14,4.01
			c-0.01,0.01-0.02,0.01-0.03,0.01c-0.02,0-0.04-0.01-0.05-0.02c-0.2-0.24-0.72-0.91-1.08-1.93c-0.3-0.86-0.44-1.82-0.42-2.84
			C85.68,85.04,85.86,83.95,86.21,82.82 M84.46,88.78L84.46,88.78c0-0.02,0.02-0.04,0.05-0.05c0.02-0.01,0.04,0,0.06,0.02
			c0.61,0.71,1.42,1.93,1.78,3.69c0.04,0.19,0.19,0.33,0.37,0.38c0.19,0.04,0.38-0.04,0.49-0.2c0.08-0.12,0.85-1.2,1.88-2.01
			c0.02-0.01,0.04-0.02,0.07-0.01c0.02,0.01,0.03,0.03,0.03,0.06c-0.03,0.53-0.1,1.07-0.22,1.59c-0.39,1.74-1.24,3.19-2.51,4.33
			c-0.01,0.01-0.03,0.02-0.04,0.02c-0.02,0-0.03-0.01-0.04-0.02c-0.29-0.27-0.84-0.85-1.29-1.77c-0.41-0.82-0.67-1.75-0.77-2.77
			C84.21,91.04,84.26,89.94,84.46,88.78 M83.57,94.75c0-0.02,0.02-0.04,0.04-0.05c0.02-0.01,0.05,0,0.06,0.02
			c0.64,0.68,1.5,1.86,1.95,3.61c0.05,0.2,0.22,0.34,0.42,0.36c0.2,0.02,0.39-0.09,0.48-0.27c0.02-0.05,0.59-1.2,1.58-2.09
			c0.02-0.02,0.04-0.02,0.07-0.01c0.02,0.01,0.04,0.03,0.04,0.05c0,0.61-0.05,1.22-0.15,1.8c-0.3,1.83-1.01,3.28-2.11,4.3
			c-0.01,0.01-0.03,0.01-0.04,0.01c-0.01,0-0.03,0-0.04-0.01c-0.24-0.2-0.86-0.77-1.39-1.72c-0.45-0.8-0.75-1.72-0.9-2.73
			C83.42,97.02,83.42,95.92,83.57,94.75 M83.08,101.03L83.08,101.03c0-0.02,0.02-0.04,0.04-0.05c0.02-0.01,0.05,0,0.06,0.01
			c0.13,0.12,0.26,0.25,0.38,0.38c0.55,0.6,1.31,1.62,1.79,3.1c0.06,0.2,0.25,0.33,0.46,0.33c0.01,0,0.02,0,0.03,0
			c0.22-0.02,0.4-0.18,0.44-0.4c0-0.01,0.23-1.29,1.3-2.27c0.02-0.01,0.04-0.02,0.06-0.01c0.02,0.01,0.04,0.03,0.04,0.05
			c0.11,0.71,0.21,1.8,0.01,2.97c-0.24,1.4-0.82,2.56-1.75,3.45c-0.01,0.01-0.03,0.02-0.04,0.02c-0.01,0-0.02-0.01-0.04-0.01
			C84.92,107.91,82.78,105.82,83.08,101.03 M82.85,107.09c0.02-0.01,0.05-0.01,0.07,0.01c0.14,0.11,0.28,0.22,0.42,0.34
			c0.61,0.54,1.48,1.47,2.11,2.9c0.08,0.18,0.25,0.29,0.44,0.29l0.01,0.02l0-0.02c0.19,0,0.37-0.12,0.44-0.3
			c0.02-0.06,0.58-1.37,1.45-2.41c0.02-0.02,0.04-0.02,0.06-0.02c0.02,0.01,0.04,0.02,0.04,0.05c0.28,1.29,0.46,3.83-1.44,6.41
			c-0.01,0.01-0.03,0.03-0.05,0.03c-0.01,0-0.02,0-0.03-0.01c-0.99-0.58-3.33-2.45-3.54-7.22C82.81,107.13,82.82,107.1,82.85,107.09
			 M83.15,113.45L83.15,113.45c-0.01-0.02,0-0.04,0.02-0.06c0.02-0.02,0.04-0.02,0.06-0.01c0.83,0.42,2.04,1.24,3.05,2.75
			c0.11,0.16,0.3,0.24,0.49,0.2c0.19-0.03,0.34-0.18,0.38-0.37c0,0,0,0,0,0c0.02-0.08,0.34-1.49,1.03-2.66
			c0.01-0.02,0.03-0.03,0.05-0.03h0c0.02,0,0.04,0.01,0.05,0.04c0.25,0.52,0.43,1.07,0.55,1.62c0.37,1.73,0.08,3.41-0.85,5
			c-0.01,0.02-0.03,0.03-0.05,0.03c0,0-0.01,0-0.02,0c-0.3-0.11-1.08-0.44-1.9-1.16c-0.69-0.61-1.29-1.38-1.77-2.28
			C83.77,115.63,83.4,114.6,83.15,113.45 M84.58,119.33L84.58,119.33c-0.01-0.02,0-0.05,0.02-0.06c0.02-0.02,0.04-0.02,0.07-0.01
			c0.16,0.07,0.32,0.14,0.48,0.23c0.73,0.37,1.8,1.07,2.76,2.3c0.12,0.15,0.32,0.21,0.5,0.17c0.19-0.05,0.32-0.21,0.35-0.4
			c0.01-0.06,0.22-1.43,0.78-2.63c0.01-0.02,0.03-0.04,0.06-0.04c0.02,0,0.05,0.01,0.06,0.04c0.59,1.31,1.42,3.89,0.24,6.51
			c-0.01,0.02-0.03,0.04-0.06,0.04c0,0-0.01,0-0.02,0C88.7,125.16,85.96,123.92,84.58,119.33 M88.11,128.05
			c-0.64-0.78-1.2-1.73-1.66-2.8c-0.01-0.02,0-0.05,0.01-0.07c0.02-0.02,0.04-0.02,0.06-0.02c0.17,0.05,0.33,0.11,0.51,0.17
			c0.76,0.28,1.91,0.86,3.01,1.97c0.14,0.14,0.34,0.18,0.52,0.11c0.18-0.07,0.3-0.24,0.3-0.44c0-0.01,0.04-1.39,0.46-2.67
			c0.01-0.02,0.03-0.04,0.05-0.04c0.02,0,0.05,0.01,0.06,0.03c0.29,0.5,0.53,1.03,0.73,1.56c0.63,1.71,0.72,3.34,0.27,4.84
			c-0.01,0.03-0.03,0.04-0.06,0.04l-0.01,0c-0.31-0.05-1.14-0.23-2.07-0.79C89.48,129.49,88.75,128.85,88.11,128.05 M88.96,130.84
			c-0.01-0.02-0.01-0.04,0-0.07c0.01-0.02,0.04-0.03,0.06-0.03c0.92,0.16,2.32,0.58,3.74,1.72c0.15,0.12,0.36,0.14,0.53,0.04
			c0.17-0.1,0.27-0.28,0.24-0.48c-0.01-0.05-0.14-1.31,0.13-2.64c0-0.02,0.02-0.04,0.05-0.05c0.02-0.01,0.05,0.01,0.06,0.03
			c0.34,0.49,0.64,1,0.89,1.52c0.56,1.14,1.17,2.88,0.86,4.68c0,0.03-0.03,0.05-0.06,0.05c-0.4-0.02-1.2-0.12-2.15-0.54
			c-0.84-0.38-1.64-0.93-2.38-1.64C90.22,132.73,89.55,131.85,88.96,130.84 M94.34,138.47c-0.79-0.63-1.55-1.43-2.24-2.37
			c-0.01-0.02-0.02-0.05-0.01-0.07c0.02-0.02,0.04-0.04,0.06-0.03c0.93,0.06,2.36,0.34,3.9,1.32c0.17,0.11,0.38,0.1,0.54-0.02
			c0.16-0.12,0.23-0.32,0.18-0.51c0-0.01-0.31-1.27-0.16-2.62c0-0.02,0.02-0.04,0.04-0.05c0.02-0.01,0.05,0,0.06,0.02
			c0.97,1.17,2.56,3.5,2.42,5.97c0,0.03-0.03,0.06-0.06,0.06c-0.08,0.01-0.16,0.01-0.24,0.01c-0.44,0-1.13-0.06-1.95-0.32
			C96,139.57,95.14,139.1,94.34,138.47 M103.05,144.24c-0.13,0.02-0.41,0.06-0.8,0.06c-0.39,0-0.8-0.04-1.21-0.12
			c-1.7-0.35-3.44-1.35-5.19-2.99c-0.02-0.01-0.02-0.04-0.02-0.06c0.01-0.02,0.03-0.04,0.05-0.04c0.93-0.12,2.39-0.12,4.09,0.55
			c0.18,0.07,0.38,0.03,0.52-0.11c0.14-0.14,0.17-0.34,0.1-0.52c-0.01-0.01-0.51-1.24-0.62-2.58c0-0.02,0.01-0.05,0.03-0.06
			c0.02-0.01,0.05-0.01,0.07,0.01c1.18,0.99,3.15,3.07,3.02,5.81C103.1,144.21,103.08,144.24,103.05,144.24 M114.59,149.29
			c-1.36-0.37-2.7-0.84-4.01-1.39c-2.24-0.95-4.42-2.17-6.48-3.63c-0.01-0.01-0.01-0.01-0.01-0.02c0.04-0.81-0.08-1.64-0.35-2.44
			c0-0.01,0-0.02,0.01-0.03c0.01-0.01,0.02-0.01,0.03,0c1.6,1.31,2.98,2.35,4.51,3.21c1.77,0.99,3.63,1.78,5.53,2.37v0l0.47,0.14
			c-0.04,0.68,0.12,1.3,0.48,1.86L114.59,149.29z M117.75,147.8c-0.24,0.66-0.2,1.35,0.14,2.05c0.01,0.03,0.01,0.06-0.01,0.09
			c-0.02,0.01-0.04,0.02-0.06,0.02c-0.01,0-0.02,0-0.03-0.01c-0.85-0.29-1.48-0.68-1.85-1.13c-0.33-0.4-0.46-0.86-0.4-1.4
			c0.04-0.4,0.21-0.68,0.52-0.89c0.53-0.35,1.47-0.46,2.74-0.34c0.03,0,0.06,0.02,0.07,0.06c0.01,0.03,0,0.07-0.03,0.08
			C118.34,146.72,117.97,147.21,117.75,147.8 M121.59,153.9c-0.91,0-1.65-0.74-1.65-1.66c0-0.91,0.74-1.66,1.65-1.66
			c0.91,0,1.65,0.75,1.65,1.66C123.24,153.15,122.5,153.9,121.59,153.9 M123.62,150.05c-0.03,0.03-0.08,0.03-0.11,0.01
			c-0.53-0.47-1.21-0.74-1.92-0.74c-0.71,0-1.4,0.27-1.93,0.75c-0.01,0.01-0.03,0.02-0.05,0.02c-0.02,0-0.04-0.01-0.06-0.02
			c-0.42-0.46-0.88-1.15-0.62-1.83c0.55-1.48,2.59-1.49,2.65-1.49h0c0.14,0,0.62,0.02,1.15,0.19c0.77,0.25,1.27,0.68,1.5,1.3
			C124.48,148.91,124.03,149.6,123.62,150.05 M127.21,148.82c-0.37,0.46-0.99,0.84-1.85,1.14c-0.01,0-0.02,0-0.03,0
			c-0.02,0-0.04-0.01-0.06-0.02c-0.02-0.02-0.02-0.06-0.01-0.09c0.33-0.7,0.38-1.39,0.14-2.05c-0.22-0.59-0.59-1.09-1.1-1.46
			c-0.03-0.02-0.04-0.05-0.03-0.08c0.01-0.03,0.03-0.05,0.07-0.06c0.88-0.09,2.07-0.1,2.74,0.34c0.31,0.2,0.48,0.49,0.52,0.89
			C127.67,147.96,127.54,148.42,127.21,148.82 M139.1,144.24c0,0.01,0,0.02-0.01,0.02c-0.47,0.37-2.2,1.67-4.8,2.95
			c-1.81,0.89-3.68,1.59-5.57,2.1l-0.37,0.08c0.38-0.56,0.56-1.19,0.52-1.9l0.55-0.17v0c1.88-0.58,3.71-1.36,5.45-2.34
			c1.65-0.92,3.17-2.11,4.56-3.25c0.01-0.01,0.02-0.01,0.03,0c0.01,0.01,0.01,0.02,0.01,0.03
			C139.18,142.58,139.06,143.41,139.1,144.24 M134.24,143.99c-1.77,0.99-3.62,1.77-5.49,2.33l-0.18,0.05
			c-0.19-0.35-0.46-0.66-0.81-0.88c-1.78-1.17-5.17-0.32-6.17-0.03c-0.01,0-0.03,0-0.04,0c-1-0.29-4.39-1.13-6.17,0.03
			c-0.35,0.23-0.62,0.53-0.81,0.88l-0.29-0.09c-1.83-0.56-3.64-1.33-5.37-2.3c-3.89-2.18-7.39-5.3-10.39-9.28
			c-1.04-1.38-2.02-2.86-2.91-4.41c0-0.01,0-0.01,0-0.02c0-0.01,0.01-0.01,0.02-0.02c2.07-0.92,7.37-3.31,11.95-5.68
			c0.01,0,0.02,0,0.02,0c0.01,0,0.01,0.01,0.01,0.02c0.03,0.19,0.08,0.39,0.16,0.58c0.38,0.88,1.37,1.21,2.13,1.33
			c0.23,0.04,0.47,0.06,0.73,0.07c0.01,0,0.02,0.01,0.02,0.01c0.29,0.72,0.92,1.26,1.84,1.55c0.31,0.1,0.64,0.17,0.99,0.21
			c0.01,0,0.02,0.01,0.02,0.01c0.16,0.41,0.42,0.74,0.78,0.99c0.88,0.6,2.14,0.51,2.81,0.4c0.01,0,0.02,0,0.03,0.01
			c0.4,0.49,0.89,0.79,1.48,0.91c0.57,0.11,1.22,0.04,1.91-0.21c0.01,0,0.02,0,0.02,0c0.01,0,0.01,0.01,0.01,0.01v8.07
			c0,0.58,0.46,1.04,1.04,1.04c0.57,0,1.04-0.46,1.04-1.04v-8.41c0-0.01,0-0.01,0.01-0.02c0.01-0.01,0.01-0.01,0.02-0.01
			c1.1,0.22,1.98,0.01,2.52-0.2c0.49-0.2,0.86-0.45,1.09-0.63c0.01-0.01,0.01-0.01,0.02-0.01c1.04,0.18,1.96-0.1,2.66-0.81
			c0.21-0.21,0.4-0.47,0.56-0.75c0-0.01,0.01-0.01,0.02-0.01h0c0.07,0,0.14,0,0.21,0c1.31,0,2.1-0.58,2.53-1.08
			c0.21-0.24,0.39-0.52,0.52-0.83c0-0.01,0.01-0.01,0.02-0.01c0.87-0.04,1.58-0.31,2.11-0.82c0.24-0.23,0.43-0.5,0.57-0.81
			c0-0.01,0.01-0.01,0.02-0.02c0.01,0,0.01,0,0.02,0.01c3.69,2.86,9.51,5.42,11.85,6.39c0.01,0,0.01,0.01,0.01,0.01
			c0,0.01,0,0.01,0,0.02c-0.85,1.45-1.77,2.84-2.75,4.14C141.62,138.69,138.13,141.81,134.24,143.99 M147.33,141.2L147.33,141.2
			c-2.17,2.04-4.02,2.75-5.19,2.98c-0.41,0.08-0.82,0.13-1.21,0.13c-0.36,0-0.63-0.04-0.79-0.07c-0.03-0.01-0.05-0.03-0.05-0.06
			c-0.07-1.55,0.52-3.07,1.75-4.51c0.38-0.44,0.82-0.87,1.3-1.27c0.02-0.02,0.05-0.02,0.07-0.01c0.02,0.01,0.03,0.04,0.03,0.06
			c-0.14,1.29-0.65,2.53-0.65,2.54c-0.07,0.18-0.03,0.38,0.1,0.52c0.13,0.14,0.34,0.18,0.52,0.11c1.69-0.67,3.15-0.67,4.08-0.55
			c0.02,0,0.04,0.02,0.05,0.04C147.35,141.16,147.34,141.18,147.33,141.2 M151.15,136.1c-0.69,0.94-1.45,1.75-2.24,2.37
			c-0.81,0.64-1.66,1.1-2.54,1.39c-0.82,0.26-1.52,0.32-1.95,0.32c-0.08,0-0.16,0-0.24-0.01c-0.03,0-0.06-0.02-0.06-0.06
			c-0.1-1.5,0.35-3.05,1.34-4.6c0.31-0.49,0.66-0.95,1.05-1.4c0.02-0.02,0.04-0.02,0.07-0.01c0.02,0.01,0.04,0.03,0.04,0.05
			c0.12,1.27-0.12,2.52-0.14,2.66c-0.04,0.19,0.04,0.39,0.2,0.49c0.16,0.11,0.37,0.11,0.53,0.01c1.52-0.97,2.96-1.26,3.9-1.32
			c0.02-0.01,0.05,0.01,0.06,0.03C151.16,136.05,151.16,136.08,151.15,136.1 M154.28,130.84c-0.59,1.01-1.26,1.88-1.98,2.59
			c-0.73,0.72-1.54,1.27-2.38,1.64c-0.99,0.44-1.83,0.52-2.15,0.54c-0.03,0-0.06-0.02-0.06-0.05c-0.26-1.48,0.02-3.07,0.85-4.72
			c0.26-0.51,0.56-1.02,0.9-1.5c0.01-0.02,0.04-0.03,0.06-0.02c0.03,0.01,0.04,0.02,0.05,0.05c0.26,1.29,0.14,2.65,0.14,2.66
			c-0.02,0.19,0.08,0.38,0.25,0.47c0.17,0.09,0.38,0.07,0.53-0.04c1.41-1.13,2.81-1.56,3.74-1.72c0.02-0.01,0.05,0,0.06,0.02
			C154.29,130.79,154.29,130.82,154.28,130.84 M156.8,125.09L156.8,125.09c-0.47,1.11-1.04,2.08-1.7,2.89
			c-0.65,0.79-1.38,1.44-2.17,1.91c-0.9,0.53-1.68,0.72-2.07,0.79h-0.01c-0.03,0-0.05-0.02-0.06-0.04
			c-0.44-1.51-0.35-3.14,0.28-4.85c0.19-0.51,0.42-1.02,0.7-1.52c0.01-0.02,0.04-0.03,0.06-0.03c0.02,0,0.05,0.02,0.05,0.04
			c0.4,1.28,0.47,2.63,0.47,2.64c0.01,0.2,0.13,0.37,0.32,0.44c0.18,0.07,0.39,0.01,0.52-0.13h0c1.12-1.23,2.25-1.79,3-2.05
			c0.18-0.07,0.36-0.12,0.54-0.16c0.02-0.01,0.05,0,0.06,0.02C156.8,125.04,156.81,125.07,156.8,125.09 M158.62,119.31
			L158.62,119.31c-0.36,1.12-0.82,2.11-1.38,2.95c-0.56,0.86-1.23,1.57-1.97,2.11c-0.87,0.64-1.68,0.91-1.98,0.99c0,0-0.01,0-0.01,0
			c-0.03,0-0.05-0.02-0.06-0.04c-0.72-1.75-0.51-3.62-0.21-4.88c0.14-0.57,0.32-1.14,0.54-1.7c0.01-0.03,0.03-0.04,0.06-0.04
			c0.03,0,0.05,0.01,0.06,0.04c0.53,1.24,0.73,2.65,0.74,2.71c0.02,0.19,0.16,0.35,0.34,0.4c0.18,0.05,0.38-0.01,0.5-0.16
			c1.14-1.41,2.41-2.12,3.28-2.47c0.02-0.01,0.05,0,0.06,0.01C158.62,119.26,158.62,119.29,158.62,119.31 M158.81,116.31
			c-0.45,0.92-1.02,1.7-1.69,2.33c-0.75,0.71-1.48,1.07-1.84,1.22c-0.01,0-0.02,0.01-0.02,0.01c-0.02,0-0.04-0.01-0.05-0.03
			c-0.78-1.39-1.06-3.04-0.83-4.91c0.07-0.57,0.18-1.15,0.35-1.72c0.01-0.02,0.03-0.04,0.05-0.04c0.03,0,0.05,0.01,0.06,0.03
			c0.68,1.17,1.05,2.6,1.06,2.66c0.05,0.19,0.2,0.33,0.39,0.36c0.19,0.03,0.38-0.06,0.48-0.22c0.96-1.53,2.13-2.4,2.95-2.86
			c0.02-0.01,0.05-0.01,0.07,0c0.02,0.02,0.03,0.04,0.02,0.06C159.59,114.36,159.26,115.4,158.81,116.31"/>
	</g>
</g>
</svg>
