<svg xmlns="http://www.w3.org/2000/svg" width="227" height="68.87" viewBox="0 0 227 68.87"><title>logo header</title><path d="M56.05,19.83a23,23,0,0,0-45.22,1A23,23,0,0,1,50,40.49a22.93,22.93,0,0,0,6.1-20.66" transform="translate(-1.5 -0.57)" fill="#29c3ec"/><path d="M27.16,51.07a22.57,22.57,0,0,1-6.5-5A23,23,0,1,0,60.5,27.91,23,23,0,0,1,27.16,51.07" transform="translate(-1.5 -0.57)" fill="#0095b3"/><path d="M27.12,25.8a22.92,22.92,0,0,1,7.75-2.64,23,23,0,1,0-7,43.24,23,23,0,0,1-.76-40.6" transform="translate(-1.5 -0.57)" fill="#49c0b6"/><rect x="78.33" y="0.86" width="6.33" height="32.44" fill="#434041"/><path d="M113.86,34.73c-9.9,0-16-7.58-16-17.13s6.37-17,16-17,16,7.4,16,17-6.15,17.13-16,17.13m0-27.93c-6,0-9.51,5.3-9.51,10.54,0,5,2.5,11.15,9.51,11.15s9.5-6.16,9.5-11.15c0-5.24-3.52-10.54-9.5-10.54" transform="translate(-1.5 -0.57)" fill="#434041"/><path d="M156.88,8.57A5.85,5.85,0,0,0,152,5.9a3.86,3.86,0,0,0-4,3.65c0,5.47,12.87,3.19,12.87,14.08,0,6.49-4,11.1-10.67,11.1-4.47,0-7.75-2.59-10-6.33l4.09-4c.86,2.49,3.14,4.73,5.85,4.73s4.17-2.19,4.17-4.69c0-3.35-3.1-4.31-5.64-5.29-4.17-1.72-7.22-3.83-7.22-8.86A9.44,9.44,0,0,1,151,.57c2.89,0,6.88,1.41,8.87,3.61Z" transform="translate(-1.5 -0.57)" fill="#434041"/><polygon points="179.38 6.36 179.38 13.51 188.55 13.51 188.55 19.01 179.38 19.01 179.38 33.3 173.06 33.3 173.06 0.86 189.15 0.86 189.15 6.36 179.38 6.36" fill="#434041"/><path d="M208,27l-2.66,6.84h-6.67L211.3.57h4.9l12.3,33.29h-6.75L219.25,27Zm5.47-16.95h-.09l-3.57,11.79h7.7Z" transform="translate(-1.5 -0.57)" fill="#434041"/><path d="M81.1,44.85v7.91h-1V44.85Z" transform="translate(-1.5 -0.57)" fill="#434041"/><path d="M83.1,48.61c0-.6,0-1.07,0-1.53H84L84,48h0a2.12,2.12,0,0,1,1.88-1c.79,0,2,.47,2,2.42v3.38h-1V49.48c0-.92-.34-1.68-1.31-1.68a1.51,1.51,0,0,0-1.39,1.06,1.73,1.73,0,0,0-.07.48v3.42h-1Z" transform="translate(-1.5 -0.57)" fill="#434041"/><path d="M89.6,51.71a2.92,2.92,0,0,0,1.38.4c.74,0,1.09-.36,1.09-.84s-.3-.76-1-1c-1-.37-1.51-.92-1.51-1.6a1.76,1.76,0,0,1,2-1.67,2.59,2.59,0,0,1,1.38.35l-.24.75a2.25,2.25,0,0,0-1.16-.34c-.61,0-.94.35-.94.78s.33.68,1.07,1c1,.37,1.49.86,1.49,1.7,0,1-.79,1.72-2.12,1.72a3.24,3.24,0,0,1-1.59-.4Z" transform="translate(-1.5 -0.57)" fill="#434041"/><path d="M95.77,45.72v1.36h1.48v.78H95.77v3.07c0,.7.2,1.1.77,1.1a1.85,1.85,0,0,0,.6-.07l0,.79a2.86,2.86,0,0,1-.92.14,1.5,1.5,0,0,1-1.12-.44A2.21,2.21,0,0,1,94.76,51v-3.1h-.88v-.78h.88V46Z" transform="translate(-1.5 -0.57)" fill="#434041"/><path d="M99.69,45.48a.62.62,0,0,1-.66.63.61.61,0,0,1-.62-.63.63.63,0,0,1,.64-.64A.61.61,0,0,1,99.69,45.48Zm-1.15,7.28V47.08h1v5.68Z" transform="translate(-1.5 -0.57)" fill="#434041"/><path d="M102.66,45.72v1.36h1.48v.78h-1.48v3.07c0,.7.2,1.1.77,1.1A1.81,1.81,0,0,0,104,52l0,.79a2.86,2.86,0,0,1-.92.14,1.46,1.46,0,0,1-1.11-.44,2.21,2.21,0,0,1-.4-1.49v-3.1h-.88v-.78h.88V46Z" transform="translate(-1.5 -0.57)" fill="#434041"/><path d="M110.19,51.2c0,.6,0,1.11,0,1.56h-.91l-.06-.93h0a2.13,2.13,0,0,1-1.89,1.06c-.88,0-1.95-.51-1.95-2.49V47.08h1v3.13c0,1.08.34,1.82,1.27,1.82a1.49,1.49,0,0,0,1.36-1,1.4,1.4,0,0,0,.09-.53V47.08h1Z" transform="translate(-1.5 -0.57)" fill="#434041"/><path d="M113.27,45.72v1.36h1.48v.78h-1.48v3.07c0,.7.2,1.1.78,1.1a1.85,1.85,0,0,0,.6-.07l0,.79a2.74,2.74,0,0,1-.91.14,1.5,1.5,0,0,1-1.12-.44,2.21,2.21,0,0,1-.39-1.49v-3.1h-.89v-.78h.89V46Z" transform="translate(-1.5 -0.57)" fill="#434041"/><path d="M121.12,49.87a2.79,2.79,0,0,1-2.83,3A2.71,2.71,0,0,1,115.56,50a2.78,2.78,0,0,1,2.82-3A2.69,2.69,0,0,1,121.12,49.87Zm-4.5.06c0,1.24.71,2.18,1.71,2.18s1.73-.93,1.73-2.2c0-1-.48-2.18-1.7-2.18S116.62,48.86,116.62,49.93Z" transform="translate(-1.5 -0.57)" fill="#434041"/><path d="M130.06,44.42v6.87c0,.51,0,1.08.05,1.47h-.91l0-1h0a2,2,0,0,1-1.91,1.12c-1.38,0-2.44-1.16-2.44-2.89,0-1.89,1.17-3,2.55-3a1.89,1.89,0,0,1,1.71.86h0v-3.4Zm-1,5a2.18,2.18,0,0,0,0-.44,1.53,1.53,0,0,0-1.49-1.18c-1.07,0-1.71.94-1.71,2.18s.58,2.1,1.68,2.1A1.58,1.58,0,0,0,129,50.82a2.06,2.06,0,0,0,0-.44Z" transform="translate(-1.5 -0.57)" fill="#434041"/><path d="M132.49,50.1a1.83,1.83,0,0,0,2,2,3.63,3.63,0,0,0,1.57-.3l.19.74a4.56,4.56,0,0,1-1.91.37A2.64,2.64,0,0,1,131.51,50c0-1.71,1-3,2.66-3a2.39,2.39,0,0,1,2.35,2.66,2.8,2.8,0,0,1,0,.48Zm3-.73a1.48,1.48,0,0,0-1.44-1.67,1.69,1.69,0,0,0-1.58,1.67Z" transform="translate(-1.5 -0.57)" fill="#434041"/><path d="M147.35,48.72c0,2.71-1.66,4.17-3.68,4.17s-3.56-1.63-3.56-4,1.56-4.16,3.67-4.16S147.35,46.36,147.35,48.72Zm-6.15.12c0,1.7.91,3.21,2.53,3.21s2.54-1.49,2.54-3.29c0-1.58-.82-3.22-2.52-3.22S141.2,47.11,141.2,48.84Z" transform="translate(-1.5 -0.57)" fill="#434041"/><path d="M148.77,44.42h1V48h0a2.12,2.12,0,0,1,1.94-1c1.42,0,2.41,1.17,2.41,2.89,0,2-1.29,3-2.56,3a2.06,2.06,0,0,1-1.91-1.06h0l-.06.93h-.88c0-.39.05-1,.05-1.47Zm1,6.06a1.2,1.2,0,0,0,.05.38,1.59,1.59,0,0,0,1.55,1.21c1.09,0,1.72-.89,1.72-2.19,0-1.14-.58-2.11-1.7-2.11A1.65,1.65,0,0,0,149.85,49a1.44,1.44,0,0,0-.06.43Z" transform="translate(-1.5 -0.57)" fill="#434041"/><path d="M155.58,48.85c0-.67,0-1.25-.05-1.77h.91l0,1.12h0A1.72,1.72,0,0,1,158.1,47l.28,0v1a1.83,1.83,0,0,0-.35,0,1.44,1.44,0,0,0-1.38,1.32,3.45,3.45,0,0,0,0,.48v3h-1Z" transform="translate(-1.5 -0.57)" fill="#434041"/><path d="M163.48,51.4a9.39,9.39,0,0,0,.08,1.36h-.92l-.09-.72h0a2.12,2.12,0,0,1-1.74.85A1.62,1.62,0,0,1,159,51.26c0-1.38,1.22-2.13,3.42-2.12V49a1.16,1.16,0,0,0-1.29-1.3,2.74,2.74,0,0,0-1.49.42l-.24-.69a3.71,3.71,0,0,1,1.88-.49c1.74,0,2.16,1.18,2.16,2.31Zm-1-1.54c-1.12,0-2.4.18-2.4,1.28a.91.91,0,0,0,1,1,1.44,1.44,0,0,0,1.4-1,1.27,1.27,0,0,0,0-.32Z" transform="translate(-1.5 -0.57)" fill="#434041"/><path d="M167.8,51.51a3.43,3.43,0,0,0,1.82.52c1,0,1.66-.55,1.66-1.35s-.42-1.16-1.49-1.56c-1.3-.47-2.09-1.15-2.09-2.26a2.28,2.28,0,0,1,2.56-2.15,3.57,3.57,0,0,1,1.74.39l-.29.84a2.81,2.81,0,0,0-1.49-.38c-1.08,0-1.49.65-1.49,1.19,0,.74.48,1.1,1.57,1.52,1.34.52,2,1.16,2,2.33s-.89,2.29-2.76,2.29a4.11,4.11,0,0,1-2-.52Z" transform="translate(-1.5 -0.57)" fill="#434041"/><path d="M179,49.87a2.79,2.79,0,0,1-2.83,3A2.71,2.71,0,0,1,173.47,50a2.78,2.78,0,0,1,2.82-3A2.69,2.69,0,0,1,179,49.87Zm-4.5.06c0,1.24.71,2.18,1.71,2.18s1.73-.93,1.73-2.2c0-1-.48-2.18-1.7-2.18S174.53,48.86,174.53,49.93Z" transform="translate(-1.5 -0.57)" fill="#434041"/><path d="M184.51,52.56a4,4,0,0,1-1.63.33,2.7,2.7,0,0,1-2.83-2.9,2.9,2.9,0,0,1,3-3,3.37,3.37,0,0,1,1.44.3l-.24.79a2.52,2.52,0,0,0-1.2-.27,2,2,0,0,0-2,2.15,2,2,0,0,0,2,2.12,3,3,0,0,0,1.27-.27Z" transform="translate(-1.5 -0.57)" fill="#434041"/><path d="M187,45.48a.62.62,0,0,1-.66.63.61.61,0,0,1-.62-.63.63.63,0,0,1,.65-.64A.61.61,0,0,1,187,45.48Zm-1.15,7.28V47.08h1v5.68Z" transform="translate(-1.5 -0.57)" fill="#434041"/><path d="M192.72,51.4a9.39,9.39,0,0,0,.08,1.36h-.93l-.08-.72h0a2.12,2.12,0,0,1-1.74.85,1.62,1.62,0,0,1-1.74-1.63c0-1.38,1.22-2.13,3.42-2.12V49a1.16,1.16,0,0,0-1.29-1.3,2.75,2.75,0,0,0-1.5.42l-.23-.69a3.71,3.71,0,0,1,1.88-.49c1.74,0,2.16,1.18,2.16,2.31Zm-1-1.54c-1.13,0-2.41.18-2.41,1.28a.91.91,0,0,0,1,1,1.42,1.42,0,0,0,1.39-1,1,1,0,0,0,.05-.32Z" transform="translate(-1.5 -0.57)" fill="#434041"/><path d="M194.51,44.42h1v8.34h-1Z" transform="translate(-1.5 -0.57)" fill="#434041"/><path d="M205.11,44.42v6.87c0,.51,0,1.08,0,1.47h-.91l-.05-1h0a2.06,2.06,0,0,1-1.92,1.12A2.6,2.6,0,0,1,199.8,50c0-1.89,1.17-3,2.55-3a1.89,1.89,0,0,1,1.71.86h0v-3.4Zm-1,5A1.65,1.65,0,0,0,204,49a1.53,1.53,0,0,0-1.49-1.18c-1.07,0-1.7.94-1.7,2.18s.57,2.1,1.67,2.1a1.63,1.63,0,0,0,1.57-1.67Z" transform="translate(-1.5 -0.57)" fill="#434041"/><path d="M207.54,50.1a1.82,1.82,0,0,0,2,2,3.59,3.59,0,0,0,1.57-.3l.19.74a4.54,4.54,0,0,1-1.9.37,2.65,2.65,0,0,1-2.8-2.88,2.75,2.75,0,0,1,2.67-3,2.39,2.39,0,0,1,2.35,2.66,2.59,2.59,0,0,1,0,.48Zm3-.73a1.47,1.47,0,0,0-1.44-1.67,1.69,1.69,0,0,0-1.58,1.67Z" transform="translate(-1.5 -0.57)" fill="#434041"/><path d="M215.74,44.42h1v8.34h-1Z" transform="translate(-1.5 -0.57)" fill="#434041"/><path d="M222.63,51.4a9.39,9.39,0,0,0,.08,1.36h-.93L221.7,52h0a2.12,2.12,0,0,1-1.74.85,1.62,1.62,0,0,1-1.74-1.63c0-1.38,1.22-2.13,3.42-2.12V49a1.16,1.16,0,0,0-1.29-1.3,2.77,2.77,0,0,0-1.5.42l-.23-.69a3.71,3.71,0,0,1,1.88-.49c1.74,0,2.16,1.18,2.16,2.31Zm-1-1.54c-1.13,0-2.41.18-2.41,1.28a.91.91,0,0,0,1,1,1.42,1.42,0,0,0,1.39-1,1,1,0,0,0,0-.32Z" transform="translate(-1.5 -0.57)" fill="#434041"/><path d="M224.29,51.71a2.84,2.84,0,0,0,1.37.4c.74,0,1.09-.36,1.09-.84s-.29-.76-1-1c-1-.37-1.52-.92-1.52-1.6a1.76,1.76,0,0,1,2-1.67,2.65,2.65,0,0,1,1.39.35l-.25.75a2.19,2.19,0,0,0-1.16-.34c-.61,0-.94.35-.94.78s.33.68,1.07,1c1,.37,1.49.86,1.49,1.7,0,1-.79,1.72-2.12,1.72a3.27,3.27,0,0,1-1.59-.4Z" transform="translate(-1.5 -0.57)" fill="#434041"/><path d="M80,58.93h4v.86H81v2.63h2.83v.85H81v3.58H80Z" transform="translate(-1.5 -0.57)" fill="#434041"/><path d="M89.51,65.29c0,.59,0,1.11,0,1.56h-.87l-.06-.93h0A2,2,0,0,1,86.82,67C86,67,85,66.47,85,64.49V61.16h1V64.3c0,1.08.32,1.82,1.2,1.82a1.43,1.43,0,0,0,1.3-1,1.64,1.64,0,0,0,.08-.53V61.16h1Z" transform="translate(-1.5 -0.57)" fill="#434041"/><path d="M91.62,64.2a1.78,1.78,0,0,0,1.86,2,3.24,3.24,0,0,0,1.49-.3l.18.74a4.14,4.14,0,0,1-1.81.37,2.59,2.59,0,0,1-2.65-2.88c0-1.71,1-3,2.53-3,1.77,0,2.23,1.62,2.23,2.66a3,3,0,0,1,0,.49Zm2.88-.74c0-.65-.25-1.67-1.36-1.67s-1.42,1-1.5,1.67Z" transform="translate(-1.5 -0.57)" fill="#434041"/><path d="M96.61,62.94c0-.67,0-1.25,0-1.78h.85l0,1.14h0A1.65,1.65,0,0,1,99,61.05l.27,0v1a1.16,1.16,0,0,0-.34,0,1.39,1.39,0,0,0-1.31,1.32,2.39,2.39,0,0,0,0,.48v3h-1Z" transform="translate(-1.5 -0.57)" fill="#434041"/><path d="M99.69,66.25l2.43-3.34.72-.9v0H99.91v-.83H104v.65l-2.41,3.3c-.23.32-.45.61-.69.89v0h3.14v.82H99.69Z" transform="translate(-1.5 -0.57)" fill="#434041"/><path d="M108.81,65.49a9.39,9.39,0,0,0,.08,1.36H108l-.08-.72h0a2,2,0,0,1-1.65.85,1.58,1.58,0,0,1-1.65-1.63c0-1.38,1.16-2.13,3.25-2.12v-.11a1.15,1.15,0,0,0-1.23-1.31,2.43,2.43,0,0,0-1.42.43l-.22-.7a3.36,3.36,0,0,1,1.78-.49c1.65,0,2,1.19,2,2.31ZM107.87,64c-1.07,0-2.29.18-2.29,1.28a.88.88,0,0,0,.91,1,1.37,1.37,0,0,0,1.33-1,1.39,1.39,0,0,0,.05-.32Z" transform="translate(-1.5 -0.57)" fill="#434041"/><path d="M110.21,65.8a2.63,2.63,0,0,0,1.3.4c.7,0,1-.36,1-.84s-.28-.76-1-1c-1-.37-1.44-.92-1.44-1.6A1.7,1.7,0,0,1,112,61.05a2.41,2.41,0,0,1,1.32.35l-.24.75a2,2,0,0,0-1.1-.34.79.79,0,0,0-.89.78c0,.47.31.68,1,1,.93.37,1.42.86,1.42,1.7,0,1-.75,1.72-2,1.72a2.92,2.92,0,0,1-1.52-.4Z" transform="translate(-1.5 -0.57)" fill="#434041"/><path d="M118.26,64.36l-.78,2.49h-1L119,58.93h1.16l2.57,7.92h-1l-.8-2.49Zm2.48-.8L120,61.28c-.17-.51-.28-1-.39-1.44h0c-.11.46-.22.95-.38,1.43l-.74,2.29Z" transform="translate(-1.5 -0.57)" fill="#434041"/><path d="M123.75,62.94c0-.67,0-1.25,0-1.78h.86l0,1.14h0a1.65,1.65,0,0,1,1.51-1.25l.27,0v1a1.16,1.16,0,0,0-.34,0,1.39,1.39,0,0,0-1.31,1.32,2.39,2.39,0,0,0,0,.48v3h-1Z" transform="translate(-1.5 -0.57)" fill="#434041"/><path d="M127.39,62.71c0-.6,0-1.07,0-1.55h.86l.05.93h0a1.86,1.86,0,0,1,1.7-1,1.6,1.6,0,0,1,1.52,1.14h0a2.09,2.09,0,0,1,.61-.74,1.74,1.74,0,0,1,1.18-.4c.73,0,1.79.49,1.79,2.46v3.34h-1V63.64c0-1.1-.39-1.75-1.17-1.75a1.32,1.32,0,0,0-1.18.93,2.11,2.11,0,0,0-.07.52v3.51h-1V63.44c0-.9-.38-1.55-1.13-1.55a1.39,1.39,0,0,0-1.22,1,1.59,1.59,0,0,0-.07.5v3.42h-1Z" transform="translate(-1.5 -0.57)" fill="#434041"/><path d="M140.43,65.49a11.2,11.2,0,0,0,.07,1.36h-.88l-.07-.72h0a2,2,0,0,1-1.65.85,1.58,1.58,0,0,1-1.65-1.63c0-1.38,1.16-2.13,3.25-2.12v-.11a1.15,1.15,0,0,0-1.23-1.31,2.46,2.46,0,0,0-1.42.43l-.22-.7a3.39,3.39,0,0,1,1.78-.49c1.66,0,2.06,1.19,2.06,2.31Zm-1-1.54c-1.07,0-2.29.18-2.29,1.28a.89.89,0,0,0,.92,1,1.35,1.35,0,0,0,1.32-1,1,1,0,0,0,0-.32Z" transform="translate(-1.5 -0.57)" fill="#434041"/><path d="M146.61,58.51v6.87c0,.5,0,1.08,0,1.47h-.87l0-1h0A1.92,1.92,0,0,1,143.89,67c-1.31,0-2.32-1.17-2.32-2.89,0-1.89,1.11-3,2.42-3a1.78,1.78,0,0,1,1.62.85h0V58.51Zm-1,5a2,2,0,0,0,0-.43,1.46,1.46,0,0,0-1.41-1.19c-1,0-1.62.94-1.62,2.18s.55,2.1,1.59,2.1a1.51,1.51,0,0,0,1.44-1.23,2.06,2.06,0,0,0,0-.44Z" transform="translate(-1.5 -0.57)" fill="#434041"/><path d="M152,65.49a11.07,11.07,0,0,0,.08,1.36h-.88l-.08-.72h0a2,2,0,0,1-1.65.85,1.57,1.57,0,0,1-1.65-1.63c0-1.38,1.16-2.13,3.24-2.12v-.11a1.14,1.14,0,0,0-1.22-1.31,2.43,2.43,0,0,0-1.42.43l-.22-.7a3.36,3.36,0,0,1,1.78-.49c1.65,0,2,1.19,2,2.31ZM151,64c-1.07,0-2.28.18-2.28,1.28a.88.88,0,0,0,.91,1,1.37,1.37,0,0,0,1.33-1,1,1,0,0,0,0-.32Z" transform="translate(-1.5 -0.57)" fill="#434041"/><path d="M153.38,65.8a2.63,2.63,0,0,0,1.3.4c.7,0,1-.36,1-.84s-.28-.76-1-1c-1-.37-1.44-.92-1.44-1.6a1.7,1.7,0,0,1,1.86-1.67,2.41,2.41,0,0,1,1.32.35l-.24.75a2,2,0,0,0-1.1-.34.79.79,0,0,0-.89.78c0,.47.31.68,1,1,.93.37,1.42.86,1.42,1.7,0,1-.75,1.72-2,1.72a2.92,2.92,0,0,1-1.52-.4Z" transform="translate(-1.5 -0.57)" fill="#434041"/><path d="M160.54,61.16l1.17,3.36c.13.38.27.83.36,1.17h0c.1-.34.21-.78.35-1.19l1.06-3.34h1l-1.47,4.06c-.7,2-1.18,2.93-1.85,3.55a2.6,2.6,0,0,1-1.21.66l-.24-.86a2.53,2.53,0,0,0,.86-.5,3.12,3.12,0,0,0,.82-1.15.64.64,0,0,0,.08-.25.67.67,0,0,0-.08-.27l-2-5.24Z" transform="translate(-1.5 -0.57)" fill="#434041"/><path d="M172.6,58.51v6.87c0,.5,0,1.08.05,1.47h-.87l-.05-1h0A1.94,1.94,0,0,1,169.88,67c-1.3,0-2.32-1.17-2.32-2.89,0-1.89,1.12-3,2.42-3a1.79,1.79,0,0,1,1.63.85h0V58.51Zm-1,5a2,2,0,0,0,0-.43,1.46,1.46,0,0,0-1.42-1.19c-1,0-1.61.94-1.61,2.18s.54,2.1,1.59,2.1a1.51,1.51,0,0,0,1.44-1.23,2.06,2.06,0,0,0,0-.44Z" transform="translate(-1.5 -0.57)" fill="#434041"/><path d="M174.74,64.2a1.77,1.77,0,0,0,1.85,2,3.27,3.27,0,0,0,1.49-.3l.18.74a4.14,4.14,0,0,1-1.81.37,2.59,2.59,0,0,1-2.65-2.88c0-1.71,1-3,2.53-3,1.77,0,2.23,1.62,2.23,2.66a3,3,0,0,1,0,.49Zm2.87-.74c0-.65-.25-1.67-1.36-1.67s-1.43,1-1.5,1.67Z" transform="translate(-1.5 -0.57)" fill="#434041"/><path d="M181.89,65.61a3.21,3.21,0,0,0,1.73.51c1,0,1.57-.55,1.57-1.35s-.4-1.16-1.41-1.56c-1.23-.47-2-1.15-2-2.25a2.2,2.2,0,0,1,2.43-2.15,3.32,3.32,0,0,1,1.65.38l-.26.84a2.64,2.64,0,0,0-1.42-.38,1.25,1.25,0,0,0-1.42,1.19c0,.74.46,1.1,1.5,1.52,1.27.52,1.91,1.17,1.91,2.33A2.31,2.31,0,0,1,183.55,67a3.73,3.73,0,0,1-1.91-.52Z" transform="translate(-1.5 -0.57)" fill="#434041"/><path d="M188,64.2a1.77,1.77,0,0,0,1.85,2,3.24,3.24,0,0,0,1.49-.3l.18.74a4,4,0,0,1-1.8.37,2.59,2.59,0,0,1-2.66-2.88c0-1.71,1-3,2.53-3,1.78,0,2.23,1.62,2.23,2.66a3,3,0,0,1,0,.49Zm2.88-.74c0-.65-.26-1.67-1.37-1.67s-1.42,1-1.5,1.67Z" transform="translate(-1.5 -0.57)" fill="#434041"/><path d="M197.64,66a3.41,3.41,0,0,1-.77,2.6,2.83,2.83,0,0,1-2,.68,3.33,3.33,0,0,1-1.8-.47l.25-.79a2.88,2.88,0,0,0,1.58.45c1,0,1.74-.55,1.74-2v-.63h0a1.89,1.89,0,0,1-1.72.95,2.49,2.49,0,0,1-2.3-2.76c0-1.93,1.2-3,2.45-3a1.8,1.8,0,0,1,1.68,1h0l0-.86h.87c0,.4-.05.87-.05,1.56Zm-1-2.61a1.28,1.28,0,0,0-.06-.46,1.4,1.4,0,0,0-1.37-1.1c-.93,0-1.6.83-1.6,2.15,0,1.11.54,2,1.59,2A1.43,1.43,0,0,0,196.58,65a1.75,1.75,0,0,0,.08-.55Z" transform="translate(-1.5 -0.57)" fill="#434041"/><path d="M203.72,65.29c0,.59,0,1.11.05,1.56h-.87l-.06-.93h0A2,2,0,0,1,201,67c-.84,0-1.86-.51-1.86-2.49V61.16h1V64.3c0,1.08.33,1.82,1.21,1.82a1.42,1.42,0,0,0,1.29-1,1.4,1.4,0,0,0,.09-.53V61.16h1Z" transform="translate(-1.5 -0.57)" fill="#434041"/><path d="M205.3,62.94c0-.67,0-1.25-.05-1.78h.86l0,1.14h0a1.64,1.64,0,0,1,1.5-1.25l.27,0v1a1.12,1.12,0,0,0-.33,0,1.39,1.39,0,0,0-1.32,1.32,3.53,3.53,0,0,0,0,.48v3h-1Z" transform="translate(-1.5 -0.57)" fill="#434041"/><path d="M210,59.57a.6.6,0,0,1-.63.63.59.59,0,0,1-.59-.63.61.61,0,1,1,1.22,0Zm-1.1,7.28V61.16h1v5.69Z" transform="translate(-1.5 -0.57)" fill="#434041"/><path d="M216.14,58.51v6.87c0,.5,0,1.08,0,1.47h-.87l0-1h0A1.92,1.92,0,0,1,213.42,67c-1.31,0-2.32-1.17-2.32-2.89,0-1.89,1.11-3,2.42-3a1.78,1.78,0,0,1,1.62.85h0V58.51Zm-1,5a1.54,1.54,0,0,0,0-.43,1.46,1.46,0,0,0-1.41-1.19c-1,0-1.62.94-1.62,2.18s.54,2.1,1.59,2.1a1.51,1.51,0,0,0,1.44-1.23,1.56,1.56,0,0,0,0-.44Z" transform="translate(-1.5 -0.57)" fill="#434041"/><path d="M221.52,65.49a11.2,11.2,0,0,0,.07,1.36h-.88l-.08-.72h0A2,2,0,0,1,219,67a1.58,1.58,0,0,1-1.65-1.63c0-1.38,1.16-2.13,3.24-2.12v-.11a1.14,1.14,0,0,0-1.22-1.31,2.43,2.43,0,0,0-1.42.43l-.22-.7a3.36,3.36,0,0,1,1.78-.49c1.65,0,2.06,1.19,2.06,2.31Zm-1-1.54c-1.08,0-2.29.18-2.29,1.28a.88.88,0,0,0,.91,1,1.36,1.36,0,0,0,1.33-1,1.39,1.39,0,0,0,0-.32Z" transform="translate(-1.5 -0.57)" fill="#434041"/><path d="M227.69,58.51v6.87c0,.5,0,1.08.05,1.47h-.87l-.05-1h0A1.94,1.94,0,0,1,225,67c-1.3,0-2.32-1.17-2.32-2.89,0-1.89,1.12-3,2.42-3a1.79,1.79,0,0,1,1.63.85h0V58.51Zm-1,5a2,2,0,0,0,0-.43,1.47,1.47,0,0,0-1.42-1.19c-1,0-1.62.94-1.62,2.18s.55,2.1,1.6,2.1a1.51,1.51,0,0,0,1.44-1.23,2.06,2.06,0,0,0,0-.44Z" transform="translate(-1.5 -0.57)" fill="#434041"/></svg>