<svg id="Layer_1" data-name="Layer 1" xmlns="http://www.w3.org/2000/svg" viewBox="0 0 29.98 24.36"><defs><style>.cls-1{fill:#fff;}</style></defs><title>twitter</title><path class="cls-1" d="M369.76,7047.88a12.17,12.17,0,0,1-3.53,1,6.15,6.15,0,0,0,2.7-3.4,12.25,12.25,0,0,1-3.91,1.49,6.15,6.15,0,0,0-10.64,4.2,6.26,6.26,0,0,0,.16,1.4,17.48,17.48,0,0,1-12.68-6.42,6.16,6.16,0,0,0,1.9,8.21,6.12,6.12,0,0,1-2.79-.77v0.08a6.16,6.16,0,0,0,4.94,6,6.22,6.22,0,0,1-1.62.21,5.85,5.85,0,0,1-1.16-.11,6.16,6.16,0,0,0,5.75,4.27,12.33,12.33,0,0,1-7.64,2.64,12.78,12.78,0,0,1-1.46-.09,17.39,17.39,0,0,0,9.42,2.76c11.32,0,17.5-9.37,17.5-17.5,0-.26,0-0.53,0-0.79A12.5,12.5,0,0,0,369.76,7047.88Z" transform="translate(-339.78 -7045)"/></svg>