<svg id="Layer_1" data-name="Layer 1" xmlns="http://www.w3.org/2000/svg" viewBox="0 0 31.71 22.44"><defs><style>.cls-1{fill:#fff;}</style></defs><title>youtube</title><path class="cls-1" d="M423.27,7053.69c0-.38,0-0.75-0.06-1.13-0.12-1.59-.3-3.41-1.35-4.68a5.13,5.13,0,0,0-3.61-1.48c-1.67-.19-3.35-0.3-5-0.37-3.41-.13-6.82-0.05-10.23,0-1.75,0-3.5.08-5.25,0.22-2.14.17-4.35,0.49-5.35,2.63-0.9,1.92-.79,4.36-0.8,6.43,0,1.85,0,3.71.06,5.56,0.1,2.4.24,5.54,2.84,6.59a14.94,14.94,0,0,0,4.54.79c1.57,0.1,3.14.09,4.71,0.11,3.3,0,6.59-.06,9.89-0.13a22.44,22.44,0,0,0,6.83-.82c1.89-.65,2.38-2.69,2.64-4.47a37,37,0,0,0,.19-5.34C423.28,7056.32,423.32,7055,423.27,7053.69Zm-19,8.28v-9.65l8.21,4.82Z" transform="translate(-391.59 -7045.96)"/></svg>